<svg xmlns="http://www.w3.org/2000/svg" viewBox="0 0 15 16" fill="none">
    <path fill-rule="evenodd" clip-rule="evenodd"
          d="M0 8C0 3.85795 3.35795 0.5 7.5 0.5C11.642 0.5 15 3.85795 15 8C15 12.142 11.642 15.5 7.5 15.5C3.35795 15.5 0 12.142 0 8ZM11.1 6.14545C11.1903 6.04852 11.2395 5.9203 11.2372 5.78783C11.2348 5.65535 11.1812 5.52895 11.0875 5.43526C10.9938 5.34157 10.8674 5.2879 10.7349 5.28556C10.6024 5.28323 10.4742 5.3324 10.3773 5.42273L6.30682 9.49318L4.62273 7.80909C4.52579 7.71876 4.39758 7.66959 4.2651 7.67193C4.13262 7.67426 4.00622 7.72793 3.91253 7.82162C3.81884 7.91531 3.76517 8.04171 3.76284 8.17419C3.7605 8.30667 3.80967 8.43488 3.9 8.53182L5.94545 10.5773C6.04134 10.673 6.17131 10.7268 6.30682 10.7268C6.44233 10.7268 6.5723 10.673 6.66818 10.5773L11.1 6.14545Z"
          fill="#12B857"/>
</svg>