<svg xmlns="http://www.w3.org/2000/svg" viewBox="0 0 28 30">
    <g fill="#fff" fill-rule="evenodd">
        <path d="M27.55 2.333A2.575 2.575 0 0 0 24.38.151l-1.634.4c-.823.202-1.43.9-1.516 1.743l-.03.304a11.45 11.45 0 0 1-.813 3.22l-.182.44c-.134.323-.282.64-.444.95l2.388 2.388c.104-.067.21-.132.316-.195l.363-.213c.688-.406 1.415-.74 2.171-.998l1.004-.343c.282-.096.515-.298.65-.564l.181-.356a7.44 7.44 0 0 0 .753-4.296l-.038-.298zm-6.493 8.072l-2.01-2.01c-.169.247-.347.488-.534.72l1.89 1.89.273-.258c.124-.117.251-.231.38-.342zm-7.605 4.091l4.162-4.376 1.81 1.81-4.85 4.58-5.752 5.457-1.289-1.289 5.919-6.182zm-6.85 7.154L.222 28.317a.572.572 0 0 0 .009.8l.514.515.077.077a.849.849 0 0 0 1.443-.711l-.103-.783 5.684-5.322-1.242-1.243z"/>
        <path d="M8.516 9.774a3.097 3.097 0 1 0 0-6.193 3.097 3.097 0 0 0 0 6.193z"/>
    </g>
</svg>
