<svg xmlns="http://www.w3.org/2000/svg" viewBox="0 0 30 29">
    <path fill="#fff" fill-rule="evenodd" d="M15.897.073c-5.53 0-10.309 3.069-12.62 7.636a2.495 2.495 0 0 1 1.186.365c.292-.546.623-1.073.992-1.575.239 1.014.419 1.759.555 2.306l.106-.085a2.201 2.201 0 0 1 1.666-.415c.602.09 1.152.424 1.508.915l1.9 2.62 4.287-3.48.043-.036v-.056s-.025-3.31-.033-3.827V4.38L11.76 1.874a12.771 12.771 0 0 1 8.495.06l-3.75 2.404.016 3.965v.056l4.439 3.535 4.682-1.63.825-3.649a12.844 12.844 0 0 1 2.438 7.274l-2.845-2.673-.052-.048-4.813 1.675-1.6 5.339-.019.062.043.049c.905 1.02 3.276 3.694 3.347 3.793l.042.095 3.937-1.199a13.003 13.003 0 0 1-6.724 5.42c1.831-3.634 1.83-3.636 1.77-3.708l-3.264-3.75-.035-.041h-.41c.012.22.026.445.04.676.05.828.096 1.596.118 1.892.284 2.449-.798 4.944-2.846 6.63.115.002.23.004.344.004a14.002 14.002 0 0 0 14.06-14.035c0-7.8-6.304-13.997-14.1-13.997zM16.7 12.54a.69.69 0 0 0-.074-.408c-.105-.194-.306-.246-.455-.255a.958.958 0 0 0-.82.38.647.647 0 0 0-.086.174c-.165.515-.476 2.629-.355 3.746v.01a.999.999 0 0 1-.64 1.043 1.004 1.004 0 0 1-1.18-.343l-.02-.026-4.933-6.806a.861.861 0 0 0-.567-.343.791.791 0 0 0-.597.146.816.816 0 0 0-.22 1.047l3.45 4.76c.005.005.01.012.013.018l.006.009.021.033a.24.24 0 0 1 .009.016l.005.01.005.01.014.028.006.014.004.011.005.012.011.028.004.014.003.01c.004.014.009.029.012.044l.003.014.001.007.001.006c.003.013.006.027.007.04l.002.013a.636.636 0 0 1 .004.056v.02l-.001.048a.21.21 0 0 1-.001.013l-.001.007a.633.633 0 0 1-.006.048c0 .007-.002.013-.004.02a.638.638 0 0 1-.01.048l-.006.019a.206.206 0 0 0-.002.007l-.012.039-.004.01-.004.01-.018.043a.158.158 0 0 1-.007.012l-.004.008-.002.003-.02.038-.008.011-.006.01a.689.689 0 0 1-.043.06l-.027.03-.015.016a.639.639 0 0 0-.016.016l-.02.02a.34.34 0 0 1-.016.012l-.01.01-.03.023a.712.712 0 0 1-.257.117l-.007.002a.724.724 0 0 1-.062.01l-.01.002a.748.748 0 0 1-.059.004h-.068l-.011-.002h-.007l-.005-.001a.595.595 0 0 1-.045-.005l-.01-.002-.008-.002-.008-.001-.04-.01c-.005 0-.01-.002-.013-.003a.628.628 0 0 1-.053-.016l-.013-.006a.135.135 0 0 0-.01-.004l-.006-.002-.034-.015-.015-.008-.008-.004a.289.289 0 0 1-.007-.004c-.01-.005-.021-.01-.031-.017a.25.25 0 0 1-.008-.005l-.016-.01a.395.395 0 0 1-.06-.044.434.434 0 0 0-.028-.025l-.015-.014a.464.464 0 0 0-.01-.01l-.009-.01a.39.39 0 0 1-.031-.034l-.007-.01-.007-.008a.44.44 0 0 1-.017-.02L4.022 9.565a1.064 1.064 0 0 0-.7-.423.984.984 0 0 0-.743.181 1.013 1.013 0 0 0-.21 1.399l5.025 6.932.02.03a.826.826 0 0 0 .02.03l.016.032.006.01a.335.335 0 0 1 .01.022l.01.023.004.01.005.012a.452.452 0 0 1 .008.02l.007.026.002.01.002.006.008.025a.257.257 0 0 1 .004.023l.002.011a.69.69 0 0 0 .006.035l.002.021v.012l.002.01.002.025v.019l-.001.012v.037l-.004.03v.011l-.004.027-.006.028-.008.04-.005.017-.003.009-.002.007-.01.032a.293.293 0 0 1-.01.025c-.006.012-.01.025-.017.038l-.013.024a.465.465 0 0 1-.03.052l-.006.01-.004.005a.41.41 0 0 1-.038.052l-.025.03-.024.023-.008.008-.02.02a.408.408 0 0 1-.016.013l-.01.009c-.004.002-.008.005-.01.008l-.02.015a.716.716 0 0 1-.13.075l-.006.002a.764.764 0 0 1-.055.022h-.004l-.005.002a.84.84 0 0 1-.058.017h-.007l-.003.002a.86.86 0 0 1-.058.01h-.012a.666.666 0 0 1-.056.005H6.83a.71.71 0 0 1-.057 0l-.005-.001h-.005a.721.721 0 0 1-.057-.007l-.012-.003a.666.666 0 0 1-.061-.013l-.01-.003-.05-.015-.01-.004-.005-.003h-.002a.673.673 0 0 1-.055-.025l-.008-.004a.793.793 0 0 1-.063-.037l-.008-.005-.03-.02a.342.342 0 0 1-.013-.01l-.009-.008-.008-.006a.515.515 0 0 1-.025-.021l-.014-.015a.386.386 0 0 0-.008-.008l-.009-.008a.38.38 0 0 1-.019-.02l-.014-.018a.244.244 0 0 0-.007-.009l-.024-.03-3.777-5.195c-.314-.433-.915-.55-1.34-.26a1.042 1.042 0 0 0-.434.68.926.926 0 0 0 .153.71l3.801 5.272a.371.371 0 0 1 .026.04c.005.006.01.013.013.02l.017.033.005.008.011.022a.394.394 0 0 1 .008.022l.005.012a.37.37 0 0 1 .004.009l.009.023.008.027.001.007.01.033.004.022.002.013a.51.51 0 0 0 .006.033l.002.022v.012a.359.359 0 0 0 .003.034v.069l-.003.02-.001.01-.001.012c0 .009-.002.017-.003.026l-.004.019a.184.184 0 0 0-.004.02.34.34 0 0 1-.012.045l-.002.008-.002.005-.01.035-.007.016-.003.007-.004.01-.013.03a.135.135 0 0 1-.004.007l-.007.013-.005.01a.537.537 0 0 1-.024.042l-.006.008-.003.005-.023.034-.01.012-.008.01-.007.008a.421.421 0 0 1-.042.046l-.006.006-.009.008-.014.014a.71.71 0 0 1-.057.046h-.001a.266.266 0 0 1-.03.02l-.009.006a.41.41 0 0 1-.021.014l-.02.01-.012.006-.01.006a.377.377 0 0 1-.022.01l-.022.01a.353.353 0 0 0-.024.01l-.02.006a.368.368 0 0 1-.022.007l-.012.003-.012.004a.308.308 0 0 1-.02.005l-.03.006h-.006a.51.51 0 0 0-.013.003l-.02.004a.478.478 0 0 1-.025.002h-.01l-.011.001-.022.002h-.035l-.034-.001a.32.32 0 0 1-.024-.003l-.01-.001-.034-.004c-.007 0-.014-.003-.021-.004a.594.594 0 0 0-.013-.003l-.012-.002-.02-.005a.32.32 0 0 1-.023-.007l-.01-.003a.328.328 0 0 0-.01-.003l-.023-.007a.353.353 0 0 1-.042-.018l-.021-.009-.02-.01-.01-.006-.009-.005a.382.382 0 0 1-.022-.012l-.021-.014-.008-.005-.029-.02-.02-.016a.63.63 0 0 0-.034-.029.373.373 0 0 1-.017-.017l-.01-.01-.007-.008a.3.3 0 0 1-.031-.034l-.009-.011a.38.38 0 0 0-.021-.027l-2.277-3.14a.624.624 0 0 0-1.01.732l6.07 8.371c1.406 1.676 2.801 2.465 4.265 2.414 1.435-.05 2.785-.902 3.8-1.639 1.905-1.38 2.932-3.544 2.683-5.648l-.003-.032a585.18 585.18 0 0 1-.304-5.114 37.26 37.26 0 0 1-.048-3.297 8.17 8.17 0 0 1 .033-.638z"/>
</svg>
