<svg id="Слой_1" data-name="Слой 1" xmlns="http://www.w3.org/2000/svg" viewBox="0 0 35 35"><defs><style>.cls-1{fill:#fff;}</style></defs><title>icons</title><path class="cls-1" d="M16.35,27.3a2.25,2.25,0,0,0,.21-2.07l0,0c-.42-.85-1.26-2.67-1.47-3.15a.18.18,0,0,1,0-.19l.18-.19c.61-.66,1.71-2,3.45-3.73l0,0c.3-.19,4.07-2.52,5.13-3.1,3.18-1.85,3.35-4,2.52-5.29a1.89,1.89,0,0,0-.34-.41,2.38,2.38,0,0,0-.49-.34c-1.37-.67-3.67,0-5.14,2.9-.25.5-2.45,5.28-2.53,5.46a0,0,0,0,1,0,0c-1.56,1.62-2.5,2.71-3.17,3.39l-.44.44a.17.17,0,0,1-.21,0l-3.34-1.33h0a2.23,2.23,0,0,0-2,.32A49.67,49.67,0,0,0,4,23.86a1.56,1.56,0,0,0-.51,1.65c.12.39.53,1.56,5.15,2.21h0c.58,3,1.41,4.71,2.48,5a2,2,0,0,0,.49.05,1.82,1.82,0,0,0,1.13-.67A46.63,46.63,0,0,0,16.35,27.3Zm-4.87,4.24c-.34-.06-1.15-1.13-1.67-3.9v0A1.36,1.36,0,0,0,9.44,27a1.34,1.34,0,0,0-.71-.36c-2.81-.39-4-1-4.08-1.58,0,0,0-.17.2-.33a51.33,51.33,0,0,1,4.52-3.78.94.94,0,0,1,.48-.18.77.77,0,0,1,.36,0l3.47,1.34a.57.57,0,0,1,.34.31c.41.85,1.19,2.68,1.43,3.18a1.42,1.42,0,0,1-.09,1.06,46.92,46.92,0,0,1-3.45,4.67A.46.46,0,0,1,11.48,31.54Z"/><path class="cls-1" d="M27.27,8.89a1.89,1.89,0,0,0-.33-.42,2.38,2.38,0,0,0-.48-.35l5.33-5.68a.6.6,0,0,1,.84-.11h0a.52.52,0,0,1,0,.78L30.68,5.21C29.48,6.5,28.15,7.91,27.27,8.89Z"/></svg>