<svg width="36" height="35" viewBox="0 0 36 35" fill="none" xmlns="http://www.w3.org/2000/svg">
<path fill-rule="evenodd" clip-rule="evenodd" d="M17.355 4.1799C17.355 4.00288 17.4985 3.85938 17.6756 3.85938H18.0362H18.3967H22.6436V6.78412H18.3967V8.49036C21.2947 8.75338 23.5651 11.1896 23.5651 14.1561V14.2361H26.6501C26.8714 14.2361 27.0508 14.4155 27.0508 14.6367V14.9973C27.0508 15.2186 26.8714 15.398 26.6501 15.398H25.8889V22.0489H32.3794C32.6007 22.0489 32.7801 22.2282 32.7801 22.4495V22.8101C32.7801 23.0314 32.6007 23.2108 32.3794 23.2108H31.6983V31.2237H27.6117V25.4144C27.6117 25.1932 27.4323 25.0138 27.211 25.0138H26.1293C25.908 25.0138 25.7286 25.1932 25.7286 25.4144L25.7286 31.2237H21.7221L21.7221 25.4144C21.7221 25.1932 21.5428 25.0138 21.3215 25.0138H20.2397C20.0185 25.0138 19.8391 25.1932 19.8391 25.4144L19.8391 31.2237H15.8326V25.4144C15.8326 25.1932 15.6532 25.0138 15.4319 25.0138H14.3502C14.1289 25.0138 13.9495 25.1932 13.9495 25.4144L13.9495 31.2237H9.94302V25.4144C9.94302 25.1932 9.76364 25.0138 9.54237 25.0138H8.46061C8.23934 25.0138 8.05996 25.1932 8.05996 25.4144L8.05996 31.2237H4.05347V23.2107H3.29222C3.07095 23.2107 2.89157 23.0314 2.89157 22.8101L2.89157 22.4495C2.89157 22.2282 3.07095 22.0489 3.29222 22.0489H9.86288V15.398H9.02153C8.80026 15.398 8.62088 15.2186 8.62088 14.9973V14.6367C8.62088 14.4155 8.80026 14.2361 9.02153 14.2361H12.1867V14.1561C12.1867 11.1896 14.4571 8.75337 17.355 8.49036V4.1799ZM17.8559 18.6434L22.4186 22.0389H13.2932L17.8559 18.6434Z" fill="white"/>
</svg>
