<svg id="Слой_1" data-name="Слой 1" xmlns="http://www.w3.org/2000/svg" viewBox="0 0 500 500"><defs><style>.cls-1{fill:#fff;}</style></defs><title>icons_</title><path class="cls-1" d="M41.68,306.84c1.43-5.84,2.9-11.68,4.3-17.53,1.73-7.25,3.38-14.53,5.16-21.77a5.16,5.16,0,0,1,1.62-2.6c8.57-7,17.2-13.9,26-21L71.4,235c-3.12-3.76-6.3-7.47-9.31-11.31a4.09,4.09,0,0,1-.68-3q4.29-18.44,8.84-36.83a5,5,0,0,1,1.71-2.56q15.37-11.83,30.85-23.5a5.24,5.24,0,0,1,2.89-1.09c17.46-.06,34.92,0,52.38,0,.42,0,.84.06,1.6.12-.54,2.38-1,4.65-1.57,6.91-2.56,10.9-5.17,21.78-7.65,32.7-.35,1.52-.9,2-2.41,1.93-5-.09-10.06-.07-15.09,0-.66,0-1.76.59-1.88,1.09-1.88,7.44-3.62,14.92-5.39,22.38a2.71,2.71,0,0,0,.08.65H153L142.91,266.3h-25.6c-1,0-1.72,0-2,1.28-1.89,8.25-3.89,16.47-5.91,24.94h21c-1,4.36-2,8.44-2.92,12.52-2.1,8.94-4.23,17.87-6.26,26.83a2.05,2.05,0,0,1-2.43,1.93c-18,0-35.93,0-53.89-.09a4.24,4.24,0,0,1-2.85-1.36c-6.46-7.61-12.81-15.32-19.2-23-.36-.43-.79-.81-1.19-1.21Q41.68,307.49,41.68,306.84Z"/><path class="cls-1" d="M387,197.74H366l4.91-20.94c1.43-6.07,2.89-12.14,4.25-18.23.32-1.42.81-2,2.39-2,18,.06,36.07,0,54.1.09A4,4,0,0,1,434.3,158c6.45,7.62,12.79,15.33,19.21,23a3.46,3.46,0,0,1,.85,3.46c-2.94,12-5.74,24-8.68,36a5.5,5.5,0,0,1-1.77,2.75c-8.07,6.58-16.21,13.08-24.33,19.61-.5.4-1,.84-1.52,1.32,5.57,6.7,11,13.35,16.6,19.94a3.49,3.49,0,0,1,.82,3.49c-3.13,12.9-6.13,25.82-9.27,38.72a6,6,0,0,1-2,3.08Q409.11,321,393.86,332.41a6.62,6.62,0,0,1-3.68,1.29c-18,.08-35.92.06-53.89.05-.7,0-1.41-.06-2.3-.11,1.62-6.88,3.19-13.56,4.76-20.25,1.53-6.49,3.12-13,4.56-19.48.32-1.43.88-1.83,2.28-1.81,5.89.07,11.78,0,17.67,0,1.06,0,1.9,0,2.21-1.37,1.81-8,3.71-15.92,5.57-23.88a13.11,13.11,0,0,0,.16-1.45H343.81l10.13-43.87h22.13c5.16,0,5.16,0,6.37-5C383.95,210.34,385.46,204.15,387,197.74Z"/><path class="cls-1" d="M163.3,197.94c1.78-7.63,3.48-15,5.2-22.27,1.39-5.94,2.85-11.86,4.18-17.81.26-1.15.7-1.5,1.85-1.5q25.32,0,50.64,0c1.4,0,1.86.77,2.44,1.67l54.14,84q15.75,24.43,31.47,48.87a3,3,0,0,0,2.94,1.62c4.72-.09,9.45,0,14.49,0L320.88,334h-2.23c-16.38,0-32.76,0-49.13,0a3.5,3.5,0,0,1-3.38-1.93q-42.6-66.17-85.23-132.31a3.47,3.47,0,0,0-3.44-1.9c-3.87.13-7.76,0-11.64,0Z"/><path class="cls-1" d="M362.48,156.93c-1.63,7-3.24,13.9-4.85,20.81-1.42,6.08-2.9,12.14-4.25,18.24a2.16,2.16,0,0,1-2.59,2c-4.24-.11-8.48-.12-12.71,0a5.5,5.5,0,0,0-3.22,1.23Q314.73,217,294.71,234.83c-.53.47-1.08.91-1.82,1.53l-26.7-41.42c4.79-4.27,9.49-8.48,14.2-12.67,9-8,18-16,27.07-24a5.37,5.37,0,0,1,3.15-1.39c16.74-.09,33.48-.06,50.22-.06C361.33,156.82,361.83,156.88,362.48,156.93Z"/><path class="cls-1" d="M200.8,253.85l26.74,41.47-18,16.18c-7.75,6.94-15.49,13.9-23.29,20.79a4.7,4.7,0,0,1-2.78,1.21c-16.08.07-32.17.05-48.25,0-.35,0-.71,0-1.22-.07a13.77,13.77,0,0,1,.18-1.68c2.93-12.49,5.91-25,8.78-37.47.35-1.5.94-2,2.44-1.93,3.52.1,7,.12,10.55,0a5.2,5.2,0,0,0,3-1.15q20-17.73,39.82-35.57Z"/></svg>