<svg xmlns="http://www.w3.org/2000/svg" width="30" height="22" viewBox="0 0 30 22"><path fill="#FFF" fill-rule="evenodd" d="M14.718 7.393a.177.177 0 0 0-.239.114 4.605 4.605 0 0 1-.364.889.195.195 0 0 0 .02.215l1.24 1.528a.19.19 0 0 1-.013.253l-.402.41a.19.19 0 0 1-.283-.013l-1.064-1.312a.197.197 0 0 0-.292-.011 4.61 4.61 0 0 1-.845.669.195.195 0 0 0-.09.206l.301 1.41a.19.19 0 0 1-.136.222l-.56.15a.19.19 0 0 1-.235-.143l-.25-1.174a.197.197 0 0 0-.246-.146 4.598 4.598 0 0 1-.266.064l-2.2.456a3.34 3.34 0 0 0-2.654 3.054l-.008.122a.19.19 0 0 0 .19.202h11.163a.19.19 0 0 0 .054-.008l2.314-.689a.188.188 0 0 1 .055-.008h4.96a.19.19 0 0 0 .19-.19v-3.312c0-.59-.12-1.174-.354-1.716a2.882 2.882 0 0 1-.237-1.144v-4.12a1.899 1.899 0 0 0-2.113-1.887l-3.54.402a.19.19 0 0 1-.21-.17A1.899 1.899 0 0 0 16.714 0h-.408a.19.19 0 0 0-.188.16l-.603 3.739-.67 2.333a.19.19 0 0 0 .109.227l1.817.774a.19.19 0 0 1 .105.235l-.184.544a.19.19 0 0 1-.254.114l-1.72-.733zm2.674 7.82a.19.19 0 0 1-.056.009H6.31a.19.19 0 0 0-.19.19v.545c0 .246.15.457.363.546.112.047.205.158.18.276l-.384 1.774a.19.19 0 0 1-.186.15H1.895a.19.19 0 0 0-.097.026L.092 19.745a.185.185 0 0 0-.037.29 6.608 6.608 0 0 0 4.631 1.895h24.967a.347.347 0 0 0 .34-.412 3.47 3.47 0 0 0-3.408-2.815h-1.604a.19.19 0 0 1-.174-.114l-.778-1.774c-.055-.125.038-.268.17-.302.495-.128.86-.577.86-1.11v-.696a.19.19 0 0 0-.19-.19h-5.182a.188.188 0 0 0-.056.008l-2.24.689zm4.55 3.258a.19.19 0 0 1-.184.232H10.185a.19.19 0 0 1-.175-.119l-.085-.206a1.334 1.334 0 0 1 1.077-1.829h6.594a.188.188 0 0 0 .054-.008L19.488 16a.19.19 0 0 1 .244.182v.178c0 .105.085.19.19.19h1.434a.19.19 0 0 1 .185.148l.402 1.774z"/></svg>
