<svg id="Слой_1" data-name="Слой 1" xmlns="http://www.w3.org/2000/svg" viewBox="0 0 35 35"><defs><style>.cls-1{fill:#fff;}</style></defs><title>icons</title><path class="cls-1" d="M17.11,7.74v-3a0,0,0,0,1,0,0h5.18a0,0,0,0,1,0,.08L21,6.25a0,0,0,0,0,0,.07l1.43,1.43a0,0,0,0,1,0,.08H17.21A.09.09,0,0,1,17.11,7.74Z"/><path class="cls-1" d="M32,30.89H24.53s-5-7.71-5-7.71a.69.69,0,0,0-1.14,0l-5.42,7.6a.32.32,0,0,1-.26.13H1.79c-.42,0-.42-.38-.21-.62L17,9.07a.51.51,0,0,1,.84,0L32.34,30.29A.35.35,0,0,1,32,30.89Z"/><path class="cls-1" d="M22.42,30.63c-1.23-1.9-2.51-3.88-3.47-5.43Z"/><path class="cls-1" d="M19.42,24.91a.55.55,0,0,0-.76-.18.56.56,0,0,0-.17.76c1,1.61,2.27,3.6,3.44,5.4h1.21c.07,0,0,0,0-.07C21.93,28.9,20.5,26.67,19.42,24.91ZM19,25.2l3.47,5.43C21.19,28.73,19.91,26.75,19,25.2Z"/><path class="cls-1" d="M22.42,30.63c-1.23-1.9-2.51-3.88-3.47-5.43Z"/></svg>