<svg id="Слой_1" data-name="Слой 1" xmlns="http://www.w3.org/2000/svg" viewBox="0 0 35 35"><defs><style>.cls-1{fill:#fff;}</style></defs><title>icons</title><path class="cls-1" d="M4.42,22.93l12.46-7.51a.53.53,0,0,0,.16-.73.47.47,0,0,0-.68-.11l-.62.37a17.31,17.31,0,0,1,1.2-1.61,3.59,3.59,0,0,1,1.47-1.25.27.27,0,0,1,.38.25,12.72,12.72,0,0,1-5,9.73c-2.45,2.15-5,3.44-4.79,4.06.55,1.8,8.24-3.44,10-5.79.22-.28.68-.81,1-1.32a.11.11,0,0,1,.15,0c.69.45,2.2,1.22,2.71,1.64,1.18,1-1,4.8-.14,5.19,1.62.69,3.64-5.12,2.32-6.52S21.9,17,22.12,16.06a25.81,25.81,0,0,0,.69-3.18.11.11,0,0,1,.19-.06c.86,1.07,1.58,2,2.68,2.11a8.62,8.62,0,0,0,4.26-1.54L32.17,25a.58.58,0,0,0,.55.48.54.54,0,0,0,.48-.71L30.36,10a.56.56,0,0,0-.66-.49c-.33.06-.44.38-.38.71L29.68,12c-1.16.24-3.06,1.47-4,.38C24.38,11,24.27,9.35,20.43,9.35c-4.25,0-6.7,5-6.68,6.81l-9.86,5.9a.51.51,0,0,0-.25.73C3.86,23.16,4.32,23,4.42,22.93Z"/><path class="cls-1" d="M22.75,8.57a2.38,2.38,0,0,0,2.34-2.43,2.34,2.34,0,0,0-2.4-2.35,2.37,2.37,0,0,0-2.38,2.38A2.41,2.41,0,0,0,22.75,8.57Z"/><path class="cls-1" d="M19.84,31.31c-1.92-.47-17-5.75-17.72-6a.56.56,0,0,0-.18,0,.53.53,0,0,0-.23.05.54.54,0,0,0,.06,1c1.74.61,15.89,5.55,17.83,6a6.38,6.38,0,0,0,1.53.2,3,3,0,0,0,1.55-.34.54.54,0,0,0,0-.81c-.21-.24-.62-.08-.63-.08h0A3.48,3.48,0,0,1,19.84,31.31Z"/><path class="cls-1" d="M31.49,27.83c-2,0-17.24-1.82-18-1.91-.06,0-.55,0-.6.47a.54.54,0,0,0,.47.59c1.83.21,16.07,1.87,18.07,1.91A6.38,6.38,0,0,0,33,28.76a3,3,0,0,0,1.44-.67.54.54,0,0,0-.14-.8c-.25-.19-.63.06-.63.06h0A3.48,3.48,0,0,1,31.49,27.83Z"/></svg>