<svg width="325" height="364" viewBox="0 0 325 364" fill="none" xmlns="http://www.w3.org/2000/svg">
<path fill-rule="evenodd" clip-rule="evenodd" d="M86.1185 314.226C125.865 337.174 212.825 293.646 248.593 231.694C284.361 169.741 279.998 73.4878 238.831 49.7204C197.665 25.9529 114.154 66.7856 76.3566 132.253C38.5589 197.72 46.3716 291.279 86.1185 314.226ZM163.147 134.909C165.108 131.512 169.453 130.348 172.85 132.309L201.24 148.701C204.638 150.662 205.802 155.006 203.84 158.404C201.879 161.801 197.535 162.965 194.138 161.003L165.747 144.612C162.35 142.651 161.186 138.307 163.147 134.909ZM149.195 159.075C151.296 155.436 155.951 154.188 159.591 156.29L187.102 172.174C190.742 174.275 191.989 178.93 189.888 182.57C187.786 186.21 183.132 187.457 179.492 185.355L151.98 169.471C148.34 167.37 147.093 162.715 149.195 159.075ZM145.892 180.017C142.252 177.915 137.598 179.162 135.496 182.802C133.395 186.442 134.642 191.097 138.282 193.198L165.794 209.082C169.433 211.184 174.088 209.936 176.189 206.296C178.291 202.657 177.044 198.002 173.404 195.901L145.892 180.017ZM121.544 206.97C123.505 203.573 127.849 202.409 131.246 204.37L159.637 220.761C163.034 222.723 164.198 227.067 162.237 230.464C160.275 233.861 155.931 235.025 152.534 233.064L124.143 216.673C120.746 214.711 119.582 210.367 121.544 206.97Z" fill="white"/>
</svg>
