<svg viewBox="0 0 500 500" xmlns="http://www.w3.org/2000/svg"><defs><style>.cls-1{fill:#fff;}</style></defs><path class="cls-1" d="M226.544 87C194.764 87 169 112.691 169 144.383V168.5V250V352.291C169 385.82 196.257 413 229.88 413H250H270.12C303.743 413 331 385.82 331 352.291V250V225.379C331 224.747 330.928 224.116 330.787 223.5C328.732 214.561 322.975 206.908 314.942 202.442L312.772 201.235C304.08 196.402 294.293 193.865 284.341 193.865H268.556L255.461 194.574C249.122 194.917 243.214 197.883 239.162 202.758C239.09 202.844 238.95 202.793 238.95 202.681V153.167C238.95 148.603 242.66 144.902 247.237 144.902H250.417H254.326C258.903 144.902 262.614 148.603 262.614 153.167V180.143C262.614 180.487 262.894 180.767 263.239 180.767H330.375C330.72 180.767 331 180.487 331 180.143V144.383C331 112.691 305.236 87 273.456 87H250H226.544ZM222.949 261.935C222.949 261.018 223.552 260.209 224.432 259.944L227.476 259.029C231.575 257.796 235.834 257.17 240.116 257.17H243.487C244.312 257.17 245.034 257.725 245.244 258.52C246.46 263.118 251.346 265.709 255.848 264.141L256.776 263.818L278.328 255.836C282.066 254.451 286.023 253.742 290.011 253.742H290.301C294.907 253.742 298.641 257.466 298.641 262.059V262.26V281.203C298.641 282.204 297.925 283.063 296.938 283.246L270.235 288.219C269.834 288.293 269.442 288.408 269.065 288.56C266.768 289.489 265.266 291.713 265.266 294.184V315.307C265.266 315.529 265.195 315.744 265.063 315.923L264.123 317.198C263.926 317.464 263.614 317.622 263.283 317.622H259.963C255.764 317.622 251.731 319.259 248.726 322.185L245.451 325.375C245.29 325.531 245.199 325.746 245.199 325.97V376.247C245.199 376.662 244.951 377.038 244.568 377.202L242.211 378.211C241.301 378.6 240.322 378.801 239.332 378.801H236.322C236.148 378.801 235.983 378.873 235.864 378.999L234.78 380.16C234.661 380.287 234.496 380.358 234.322 380.358H226.447C226.214 380.358 226.001 380.229 225.893 380.024L224.983 378.289C224.947 378.22 224.876 378.177 224.799 378.177H223.575C223.229 378.177 222.949 377.898 222.949 377.553V375.788C222.949 375.674 222.856 375.58 222.741 375.58H220.707C220.399 375.58 220.197 375.258 220.333 374.982L222.949 369.66V269.829C222.949 269.706 222.895 269.589 222.8 269.51L221.303 268.263C221.16 268.145 221.078 267.969 221.078 267.784V264.857C221.078 264.283 221.545 263.818 222.12 263.818H222.741C222.856 263.818 222.949 263.725 222.949 263.61V261.935ZM245.788 304.368V303.272C245.788 299.342 248.983 296.156 252.924 296.156C255.092 296.156 257.234 296.615 259.21 297.504L260.5 298.084C260.983 298.301 261.529 297.949 261.529 297.421V296.965C261.529 295.556 260.801 294.247 259.603 293.5L258.193 292.621L255.99 291.238C255.813 291.127 255.892 290.854 256.101 290.854H258.911C259.057 290.854 259.202 290.876 259.342 290.92C261.575 291.623 263.093 293.689 263.093 296.024V311.125C263.093 313.421 261.226 315.283 258.923 315.283H249.958C247.655 315.283 245.788 313.421 245.788 311.125V304.368Z" /></svg>
