<svg id="Слой_1" data-name="Слой 1" xmlns="http://www.w3.org/2000/svg" viewBox="0 0 35 35"><defs><style>.cls-1{fill:#fff;}</style></defs><title>icons</title><path class="cls-1" d="M7.9,25.16a.55.55,0,0,0,.71-.3l2.62-6.62h2.71a10.5,10.5,0,0,1,1.83,4.12c.51,3.06-.29,5.95,1.28,5.95,1.27-.06,1.25-4.59,1.16-6.39a18.35,18.35,0,0,0-.54-3.67h6.63l2.29,6.6a.55.55,0,0,0,1-.36l-2.42-7a.55.55,0,0,0-.52-.37H17.36a21.92,21.92,0,0,0-1.3-3c-.36-1.6,3.43-1.67,5.15-2.16,2.19,5.74,9.61,5.13,9.61,3.6,0-.83-1.22-.61-3.1-.94-3.1-.54-3.14-4-3.54-5.07a3.18,3.18,0,0,0-3.73-2.31c-3,.42-11.57,3.2-8.49,8.32a17.16,17.16,0,0,0,1.16,1.58H10.86a.55.55,0,0,0-.51.35l-2.75,7A.55.55,0,0,0,7.9,25.16Z"/><path class="cls-1" d="M20.63,23.77a6.68,6.68,0,0,0,10,7.07,6.67,6.67,0,0,0-3.41-12.4h-.5l0,0a0,0,0,0,0,0,0l.32.9c0,.1.07.1.09.1A5.49,5.49,0,0,1,32,22.22a5.63,5.63,0,1,1-8.12-1.62.17.17,0,0,0,0-.18c-.12-.37-.31-.89-.31-.9l0,0h0l-.26.2A6.71,6.71,0,0,0,20.63,23.77Z"/><path class="cls-1" d="M27.37,4.54a2.77,2.77,0,1,1-2.64,2.87A2.79,2.79,0,0,1,27.37,4.54Z"/><path class="cls-1" d="M3.69,19.66a6.68,6.68,0,0,0,2.5,12,6.67,6.67,0,0,0,6-11.4L11.89,20l-.13-.11h0l0,0-.38.88c0,.1,0,.12,0,.14a5.49,5.49,0,0,1,1.76,5.33,5.63,5.63,0,1,1-4.84-6.72.17.17,0,0,0,.16-.1c.17-.35.38-.86.39-.87a0,0,0,0,0,0,0h0l-.33,0A6.71,6.71,0,0,0,3.69,19.66Z"/></svg>