<svg id="Слой_1" data-name="Слой 1" xmlns="http://www.w3.org/2000/svg" viewBox="0 0 35 35"><defs><style>.cls-1{fill:#fff;}</style></defs><title>icons</title><path class="cls-1" d="M17.52,8.11c-3.74,0-7.87,2.1-6.81,8.51.61,3.69,3.06,6.81,6.81,6.81s6.27-3.1,6.81-6.81C25.25,10.25,21.26,8.11,17.52,8.11ZM22,19a5.59,5.59,0,0,1-4.48,2A5.83,5.83,0,0,1,12.9,18.9c-.63-.7-1.6-3-.88-3.62,1-.85,2.6.6,5.47.59s4.33-1.36,5.38-.59C23.49,15.73,23.06,17.76,22,19Z"/><path class="cls-1" d="M19.82,24.26h7.53c3.83,0,4.86-1,4.86-2.54,0-3.6-3.5-5.62-6.4-6.59,0,0-.13,0-.13.08-.06,4.21-2.42,7.79-5.88,8.91A.07.07,0,0,0,19.82,24.26Z"/><path class="cls-1" d="M7.64,24.25h7.53a.07.07,0,0,0,0-.14c-3.46-1.13-5.82-4.7-5.88-8.91,0-.05-.08-.09-.13-.08-2.91,1-6.56,3-6.4,6.59C2.86,23.31,3.81,24.25,7.64,24.25Z"/><path class="cls-1" d="M34.23,23.27a.54.54,0,0,0-.76.06,5.36,5.36,0,0,1-4.69,2H6.26a5.43,5.43,0,0,1-4.73-2,.54.54,0,0,0-.83.7,6.4,6.4,0,0,0,5.34,2.35V28.8a.56.56,0,1,0,1.12,0V26.39H27.8v2.4a.56.56,0,0,0,1.12,0v-2.4A6.36,6.36,0,0,0,34.29,24,.54.54,0,0,0,34.23,23.27Z"/></svg>