<svg id="Слой_1" data-name="Слой 1" xmlns="http://www.w3.org/2000/svg" viewBox="0 0 35 35"><defs><style>.cls-1{fill:#fff;}</style></defs><title>icons</title><path class="cls-1" d="M24.32,26.68l0,.07c-3.12-.41-6.41-2.06-10-2.83l.93-1.11a.11.11,0,0,1,.08,0c.53,0,5.07-.07,5.6-.07a.11.11,0,0,1,.08,0l3.37,3.82A.11.11,0,0,1,24.32,26.68Z"/><path class="cls-1" d="M32,18.16a13.54,13.54,0,0,1-2.86,8.43l0,0c-.42.06-.86.11-1.34.15a.05.05,0,0,1,0-.09,13,13,0,0,0,1.15-1.52.18.18,0,0,0-.2-.26l-3.42,1a.17.17,0,0,1-.18-.05c-.44-.52-2.78-3.15-3.2-3.63a.18.18,0,0,1,0-.17L23.33,17a.18.18,0,0,1,.11-.12l4.46-1.55a.18.18,0,0,1,.18,0l2.52,2.36a.18.18,0,0,0,.3-.14,12.83,12.83,0,0,0-2.13-6.56.18.18,0,0,0-.32.06l-.7,3.12a.18.18,0,0,1-.11.13l-4.51,1.57a.18.18,0,0,1-.17,0l-4.33-3.45a.18.18,0,0,1-.07-.14l0-3.84a.18.18,0,0,1,.08-.15L22,6.18a.18.18,0,0,0,0-.32,12.91,12.91,0,0,0-7.71,0,.18.18,0,0,0,0,.32l3.29,2.2a.17.17,0,0,1,.08.14c0,.68,0,3.34,0,3.84a.18.18,0,0,1-.06.14l-4.21,3.46a.18.18,0,0,1-.17,0L8.7,14.43l0,0c-.06,0-.64-2.47-.9-3.57a.18.18,0,0,0-.31-.06,13.77,13.77,0,0,0-2.29,6.14c0,.33.24.41.52.22.67-.45,1.74-1.15,2.5-1.69a.39.39,0,0,1,.37,0c.65.25,2.79,1.06,4.22,1.53a.39.39,0,0,1,.26.27l1.36,4.72a.4.4,0,0,1-.08.36l-1.17,1.4a.05.05,0,0,1,0,0,16,16,0,0,0-2.36-.18,12.67,12.67,0,0,0-5,1.09.05.05,0,0,1-.07,0A13.79,13.79,0,0,1,4,18.16a14,14,0,1,1,28,0Z"/><path class="cls-1" d="M16,29.55c.23.13.14.3,0,.3H4.38c-.07,0-.1-.11-.07-.18C4.56,29.21,11.24,27,16,29.55Z"/><path class="cls-1" d="M25,30.32c-6.46,0-8.5-3.13-14.48-3.09-5,0-8.58,2.17-8.79,1.69s1.56-2.11,4.17-3.26a11.93,11.93,0,0,1,4.77-1,15.06,15.06,0,0,1,2.25.18q.55.08,1.09.2h0c3.41.72,6.51,2.27,9.45,2.66a9.8,9.8,0,0,0,1.29.09c.66,0,1.27,0,1.84-.07s1-.09,1.41-.15c3.53-.5,5.09-1.67,5.34-1.42C33.83,26.61,30.16,30.31,25,30.32Z"/></svg>