<svg id="Слой_1" data-name="Слой 1" xmlns="http://www.w3.org/2000/svg" viewBox="0 0 35 35"><defs><style>.cls-1{fill:#fff;}</style></defs><title>icons</title><path class="cls-1" d="M29.81,32.68a.54.54,0,0,0-.74-.16,4.35,4.35,0,0,1-2.13.51h-.3a9.51,9.51,0,0,1-3.78-1.67l-.07,0c-1.89-1.12-11.54-6.89-16.44-10.12C2.58,18.7,3,16.58,3,16.49a.54.54,0,0,0-.37-.65l-.15,0a.53.53,0,0,0-.51.39c0,.12-.75,2.89,3.78,5.87C11.15,25.62,22.2,32.2,22.28,32.24a10.79,10.79,0,0,0,4.29,1.84H27a5.17,5.17,0,0,0,2.68-.68A.53.53,0,0,0,29.81,32.68Z"/><path class="cls-1" d="M19,1.94A2.45,2.45,0,0,1,21.55,4.4a2.49,2.49,0,0,1-2.44,2.54,2.53,2.53,0,0,1-2.55-2.5A2.48,2.48,0,0,1,19,1.94Z"/><path class="cls-1" d="M22.29,19.81a9.18,9.18,0,0,1-1.64-.42,11.39,11.39,0,0,1-1.4-.59.14.14,0,0,0-.2.06c-1.45,4.12.34,9.66,1.29,9.54C22.23,28.15,20.47,24.57,22.29,19.81Z"/><path class="cls-1" d="M30.59,16.19c1-.53-2.8-8.87-10.85-8.23-5.53.44-11.69-3.68-12.3-2.8s3.07,3.83,9.4,6c.68.23,1.16,1.2,1.51,2,.23.49.12.83-.41.7-3-.77-5.24,0-6.3,2.09-1.39,2.75-1.59,6-.9,6.48.47.35,1.11,0,1.35-.94.58-2.29,2.4-5.82,4.44-5,1.51.6,5.15,3,7,2,2-1.11.35-5.18-.3-7,0-.13,0-.21.16-.17A7.4,7.4,0,0,1,26.58,13C28.33,14.61,29.65,16.71,30.59,16.19Z"/></svg>