<svg xmlns="http://www.w3.org/2000/svg" viewBox="0 0 30 20"><defs><style>.cls-1{fill:#fff;}</style></defs><path class="cls-1" d="M29.639 5.128c-.04-.088-.084-.174-.122-.265-.307-.79-.694-1.287-1.028-2.064-.209-.488-.501-.743-.782-1.191a3.103 3.103 0 0 1-.334-.884c-.035-.251-.102-.502-.15-.717-.19.334-.387.668-.568 1.002a.317.317 0 0 1-.298.204c-2.07.076-4.461 3.14-5.452 4.624-.764 1.144-2.966 1.456-4.297 1.833-.459.13-.95.224-1.406.05-1.141-.436-2.305-.769-3.524-.872-1.374-.117-2.691.054-3.851.88-.138.099-.233.056-.356-.007C4.816 6.358 2.177 10.178.074 9.853c.026.032.054.063.084.091.042.039.088.074.136.106a2.94 2.94 0 0 0 1.377.407c.951.05 1.853-.178 2.694-.585.773-.375 1.504-.84 2.256-1.254.133-.058.27-.103.412-.134l.07.084c-.084.149-.695.853-.88 1.911-.132.752.011 1.51.223 2.24.065.223-.026.34-.205.35-.677.04-1.17-.25-1.408-.373-.571-.29-1.016-.132-1.19.473-.301 1.049-1.058 2.714-1.343 3.767-.084.32-.23.38-.523.234-.342-.167-.621-.047-.72.323-.03.11-.053.224-.073.334-.038.211-.1.472.099.593.2.122.412-.07.553-.216.193-.217.463-.348.752-.365.474-.255 1.3-2.85 1.3-2.85s.187 3.216-1.27 3.474c-.054.01-.187.07-.244.036-.276-.167-.48-.133-.6.167-.1.25-.669 1.47.334 1.11a1.63 1.63 0 0 0 .444-.206c.2-.152.36-.355.555-.512.93-.752 1.62-2.256 1.567-3.452a.614.614 0 0 1 .167-.375c.976-1.094 2.77.286 4.908-.096.626-.112 1.109-.433 1.21-1.154.053-.384.5-.552.863-.437 5.904 1.89 8.807.709 9.738.627 2.87-.25 4.12.44 4.247.418-.13.305-.501 1.1-.607 1.408-.083.234-.245.33-.47.38l-.075-.106c-.208-.302-.396-.306-.608 0-.242.346-.302.741-.273 1.15.015.205.127.251.304.15.134-.08.246-.197.384-.264.86-.413 1.76-.942 2.159-1.964.083.128.179.211.176.29.006.185-.03.369-.103.538-.298.546-.623 1.078-.945 1.61-.083.139-.25.34-.474.22a.418.418 0 0 0-.607.239c-.111.358-.201.723-.268 1.092-.053.239.118.41.334.303.679-.334.887-.848 1.008-.927 1.04-.685 1.814-2.59 1.968-3.237.143-.596-.045-1.16-.302-1.69-.11-.225-.196-.5-.48-.597-.676-.232-1.356-.448-2.08-.47-.251-.007-.351-.126-.309-.38.021-.113.06-.222.115-.322.418-.79.464-1.607.216-2.458a.69.69 0 0 1 .021-.418c.437-1.099.902-2.188 1.093-3.364.05-.313.068-.631.104-.977.11.094.204.186.309.259.362.25.7.573 1.1.73.308.105.564.324.717.61.291.507.738.786 1.352.703.325-.043.501-.214.545-.54.014-.162.02-.324.017-.487l-.289-.942z"/></svg>
