<svg id="Слой_1" data-name="Слой 1" xmlns="http://www.w3.org/2000/svg" viewBox="0 0 35 35"><defs><style>.cls-1{fill:#fff;}</style></defs><title>icons</title><path class="cls-1" d="M2.43,24.68a4.09,4.09,0,0,0,2.82,2.24c2.12.54,20.82,4.31,26.5,5.46l.23,0a.55.55,0,0,0,.64-.42.54.54,0,0,0-.42-.64c-.24,0-24.31-4.89-26.67-5.49a3,3,0,0,1-2.08-1.58.54.54,0,0,0-.5-.34.54.54,0,0,0-.5.74Z"/><path class="cls-1" d="M23.11,16.91C26,22,29.16,29.69,27,28.87c-.88-.33-5.35-9.44-9.93-12.56l-5-3.07c-1.15-.72-2.29-2.12-1.53-3.25h0c.69-1,2.53-1.13,4.18-.89.31,0,2.27.23,4.81.35,4.18.2,5.88.07,6.26.87.83,1.73-7.16,1.75-7.16,1.75A14.69,14.69,0,0,1,23.11,16.91Z"/><circle class="cls-1" cx="7.33" cy="7.88" r="2.75"/><path class="cls-1" d="M33,29l-5.83-1.81.17,1.3,5.34,1.66.16,0A.6.6,0,0,0,33,29Z"/><path class="cls-1" d="M24,26.52c-.2-.09-2.27-.74-4.67-1.49-3.67-1.15-8.25-2.59-9.57-3.09a2.64,2.64,0,0,1-1.69-1.34L8,20.5H8l0-.06a.33.33,0,0,0-.16-.1.74.74,0,0,0-.21,0H7.41a.53.53,0,0,0-.34.31.7.7,0,0,0,0,.59,4.06,4.06,0,0,0,2.24,1.86c2,.7,12,3.8,14.82,4.66a.26.26,0,0,0,.31-.38l-.39-.66Z"/></svg>