<svg id="Слой_1" data-name="Слой 1" xmlns="http://www.w3.org/2000/svg" viewBox="0 0 35 35"><defs><style>.cls-1{fill:#fff;}</style></defs><title>icons</title><path class="cls-1" d="M4,14.88c4.58,3.93,17,13.72,17.09,13.82a10,10,0,0,0,3.77,2.22A5.71,5.71,0,0,0,25.9,31a4.65,4.65,0,0,0,1.88-.36.52.52,0,0,0-.06-1,.53.53,0,0,0-.4,0A4.08,4.08,0,0,1,25,29.9a9,9,0,0,1-3.28-2l0,0c-.12-.09-12.46-9.84-17.07-13.81a.52.52,0,0,0-.68.79Z"/><path class="cls-1" d="M26.05,20.53C17.22,10,9.74,9.23,7.7,9.78a2.08,2.08,0,0,0-1.38,2.54c.85,2.77,10.11,10.38,11.41,9.27.91-.78-1.51-3-4.22-5.51a.13.13,0,0,1,.12-.21c8.23,2.49,16.2,14.66,17.44,14.1C32.66,29.25,29.63,24.79,26.05,20.53Z"/><circle class="cls-1" cx="6.63" cy="6.08" r="2.76" transform="translate(-2.37 6.1) rotate(-42.65)"/></svg>