<svg id="Слой_1" data-name="Слой 1" xmlns="http://www.w3.org/2000/svg" viewBox="0 0 35 35"><defs><style>.cls-1{fill:#fff;}</style></defs><title>icons</title><path class="cls-1" d="M22.45,31.74a21.46,21.46,0,0,1-2.65.77A15.94,15.94,0,0,1,7.43,28.66,14.51,14.51,0,0,1,3.21,14.47C4.67,8.84,8.82,5.34,14.07,3.92c6-1,10.24.18,14.61,4.49,6.63,7.38,3.59,19.06-5.48,23.08l-.28.11a10.8,10.8,0,0,0,.86-.68c.13-.12.78-.78-.26-.72a5.16,5.16,0,0,0-3,1.09c-1,.73.1.77.28.75C21.37,32,21.9,31.85,22.45,31.74Zm-11-15.92a2.61,2.61,0,0,0,2.43,2.48,2.41,2.41,0,0,0,2.61-2.49A2.59,2.59,0,0,0,13.91,13,2.53,2.53,0,0,0,11.44,15.82ZM22.29,25.4A2.33,2.33,0,0,0,20,23.1a2.24,2.24,0,0,0-2.38,2.23,2.45,2.45,0,0,0,2.36,2.23A2.37,2.37,0,0,0,22.29,25.4ZM23,15.18a3,3,0,0,0,.74,1.9A1.93,1.93,0,0,0,27,16.74a3,3,0,0,0,.12-2A2.29,2.29,0,0,0,24.78,13,2.09,2.09,0,0,0,23,15.18ZM10.83,25.72a3,3,0,0,0-1.51-2.51,1.72,1.72,0,0,0-1.73-.07A1.75,1.75,0,0,0,7,24.84,2.83,2.83,0,0,0,8.47,27a1.73,1.73,0,0,0,1.67.12A1.47,1.47,0,0,0,10.83,25.72ZM12.19,5.8A3.38,3.38,0,0,0,9.75,7.15a.92.92,0,0,0,.66,1.53,3.29,3.29,0,0,0,2.9-.86,1.61,1.61,0,0,0,.45-1.56C13.57,5.86,12.89,5.75,12.19,5.8ZM6.13,14.33c0-.17,0-1.28-.73-1.45a1,1,0,0,0-.95.52,5.36,5.36,0,0,0-.7,3.17c0,.31.14,1.08.58,1.16s.76-.48,1-.72A5.3,5.3,0,0,0,6.13,14.33ZM28.23,26c.67.17,2.71-3.45,1.63-4.19C29,21.46,27.58,25.53,28.23,26ZM25.95,7.8c.14-.13-.13-.63-.27-.8A4.1,4.1,0,0,0,23,5.68c-.22,0-1.31-.13-.48.93C23.09,7.43,25.13,8.53,25.95,7.8Z"/></svg>