<svg id="Слой_1" data-name="Слой 1" xmlns="http://www.w3.org/2000/svg" viewBox="0 0 35 35"><defs><style>.cls-1{fill:#fff;}</style></defs><title>icons</title><circle class="cls-1" cx="3.7" cy="5.18" r="2.78" transform="translate(-2.61 4.3) rotate(-46.54)"/><path class="cls-1" d="M30.17,24.09a13.67,13.67,0,0,1-8.72,4.29.3.3,0,0,1-.22-.08C16.88,24.15,10.16,17.4,7.59,14.92a.29.29,0,0,1-.09-.2c-.1-2.66.61-5.46,3.94-9.09,5-5.47,13.79-5.22,19-.12S35.33,18.78,30.17,24.09Z"/><path class="cls-1" d="M3.13,27.26a1,1,0,0,0-.76.61,1.08,1.08,0,0,0,.15,1,14.1,14.1,0,0,0,2.16,2.66l0,0A20.75,20.75,0,0,0,7.55,34a1.19,1.19,0,0,0,1,.2,1.21,1.21,0,0,0,.75-.7l.13-.28c.58-1.29,1.79-4,3.31-5.12,2-1.48,5-.59,6.41-.15a0,0,0,0,0,0,0l-1.38-1.38a.24.24,0,0,0-.14-.07c-1.78-.29-4-.45-5.66.79-1.27,1-2.24,2.9-3,4.33-.2.41-.38.76-.54,1a.52.52,0,0,1-.75.16A10.69,10.69,0,0,1,5.66,31l-.19-.19a14.66,14.66,0,0,1-1.63-1.89.48.48,0,0,1,.24-.74,8.09,8.09,0,0,0,4.74-3.56,8.58,8.58,0,0,0,.3-6.69c-.07-.17-.27-.28-.43-.44s-.5-.5-.86-.88c0,0-.09-.11-.11-.05s0,.06,0,.09C8.26,18,9.31,21.34,7.84,24A7.15,7.15,0,0,1,3.13,27.26Z"/></svg>