<svg id="Слой_1" data-name="Слой 1" xmlns="http://www.w3.org/2000/svg" viewBox="0 0 35 35"><defs><style>.cls-1,.cls-2{fill:none;stroke:#fff;stroke-linecap:round;stroke-miterlimit:10;}.cls-1{stroke-width:1.1px;}.cls-3{fill:#fff;}</style></defs><title>icons</title><path class="cls-1" d="M3.55,6.51A3.79,3.79,0,0,0,3.62,9.9C4.77,12.37,14.3,30.43,14.3,30.43"/><path class="cls-1" d="M2.71,17a3.75,3.75,0,0,0,1.24,2.83C5.58,21.07,22.6,33.07,22.6,33.07"/><line class="cls-2" x1="26.73" y1="13.12" x2="31.74" y2="23.17"/><circle class="cls-3" cx="19.51" cy="2.97" r="2.3"/><path class="cls-3" d="M24.65,8.87c3,.87.84,4.72,1.91,4.86,1.72.23,3.43-5.37-.9-7.15a9.93,9.93,0,0,0-8.36.93c-2.87,1.9-6.66,1.24-6.77,2.68-.07.92,2.87.88,5.13.43,1.71-.34,3.06-1.21,3.37-.52.44,1,1.86,4.42,1.24,4.22A7.76,7.76,0,0,0,15.08,13c-2.49.24-6.24,3.3-5.58,4.51.57,1,2.23-1,5.41-1.67,2.44-.53,3.45,1.87,5.86,2.47a3.21,3.21,0,0,0,4.27-3C25.48,10.47,23.47,8.52,24.65,8.87Z"/><path class="cls-3" d="M17.16,17.54a.2.2,0,0,0-.23,0,6.69,6.69,0,0,0-1.88,2.32c-.92,2.24-1.05,5.54-.37,5.62C16,25.62,15.89,23,17.18,21A5.47,5.47,0,0,1,19,19a.08.08,0,0,0,0-.15C18.39,18.47,17.65,17.9,17.16,17.54Z"/></svg>