<svg width="35" height="35" viewBox="0 0 35 35" fill="none" xmlns="http://www.w3.org/2000/svg">
    <path fill-rule="evenodd" clip-rule="evenodd" d="M29.0082 12L20.6759 22.9968L25.851 22.9968L34.1833 12L29.0082 12Z" fill="currentColor"/>
    <path fill-rule="evenodd" clip-rule="evenodd" d="M0.886658 22.9968L7.12166 14.768C8.51604 12.9277 10.213 12 12.1849 12H28.2921L25.1674 16.1238H13.0034C11.5693 16.1238 10.3351 16.7985 9.32105 18.1369L5.63867 22.9968H0.886658Z" fill="currentColor"/>
    <path fill-rule="evenodd" clip-rule="evenodd" d="M6.45227 22.9982L9.99522 18.3223C10.7558 17.3185 11.6814 16.8125 12.757 16.8125L24.6466 16.8125L21.7498 20.6356H13.6015C12.9382 20.6356 12.3674 20.9476 11.8984 21.5666L10.8137 22.9982H6.45227Z" fill="currentColor"/>
    <path d="M28.323 22.9959V21.8405H28.0005V21.6055H28.8646V21.8405H28.5436V22.9959H28.323Z" fill="currentColor"/>
    <path d="M29.0042 22.9959V21.6055H29.3345L29.5297 22.5538L29.7226 21.6055H30.0538V22.9959H29.8499L29.8492 21.9013L29.6344 22.9959H29.4225L29.2087 21.9013L29.208 22.9959H29.0042Z" fill="currentColor"/>
</svg>
