<svg viewBox="0 0 500 500" fill="none" xmlns="http://www.w3.org/2000/svg"><defs><style>.cls-1{fill:#fff;}</style></defs><path class="cls-1" fill-rule="evenodd" d="M132.759 190.519C158.583 190.519 179.518 169.584 179.518 143.76C179.518 117.935 158.583 97 132.759 97C106.935 97 86 117.935 86 143.76C86 169.584 106.935 190.519 132.759 190.519ZM201.481 143.76C201.481 181.714 170.713 212.482 132.759 212.482C124.562 212.482 116.7 211.047 109.411 208.414C110.23 212.434 111.135 216.43 112.124 220.399C113.738 225.236 122.951 249.634 145.689 253.397C213.539 264.625 322.012 324.124 312.774 358.508C370.466 304.08 403.588 227.141 401.941 145.885C337.768 110.816 264.315 99.9692 194.401 113.344C198.934 122.513 201.481 132.839 201.481 143.76ZM244.609 397.186C200.282 371.287 164.665 334.451 140.328 291.265C142.252 261.567 324.283 322.305 297.145 372.206C285.889 381.366 273.848 389.73 261.086 397.186L252.848 402L244.609 397.186ZM262.744 245.072H293.368L277.257 213.612C281.607 211.479 285.335 208.191 288.442 203.748C291.637 199.304 293.235 193.616 293.235 186.685C293.235 177.975 290.394 170.733 284.713 164.956C279.121 159.091 271.31 156.158 261.28 156.158H213.879V245.072H240.775V217.078H250.495L262.744 245.072ZM263.41 191.884C261.723 193.039 259.637 193.616 257.152 193.616H240.775V179.62H257.152C259.637 179.62 261.723 180.242 263.41 181.486C265.096 182.641 265.94 184.33 265.94 186.551C265.94 188.862 265.096 190.639 263.41 191.884ZM307.036 245.072H367.617V221.61H333.931V156.158H307.036V245.072Z"/></svg>
