<svg id="Слой_1" data-name="Слой 1" xmlns="http://www.w3.org/2000/svg" viewBox="0 0 500 500"><defs><style>.cls-1{fill:#fff;}</style></defs><title>icons</title><path class="cls-1" d="M72.75,249.55c.69-1.25.49-2.65.6-4a176.1,176.1,0,0,1,21.84-71.2,173.75,173.75,0,0,1,33.31-42.75c.89-.84,1.29-1,2.19,0Q146.36,150,162.15,168.2c.91,1,.64,1.5-.18,2.31a126.13,126.13,0,0,0-27.87,40.39,121.5,121.5,0,0,0-9.57,38c-2.22,25.39,2.49,49.36,14.66,71.81.24.45.52.88.78,1.32a3.72,3.72,0,0,0,1.51-1.17q33.14-32,66.27-64a7.7,7.7,0,0,0,1.65-2.38q16.35-35.29,32.73-70.56c.24-.52.49-1,.93-1.94.05.92.11,1.44.11,2,.29,36.24-.1,72.48,0,108.72a3.33,3.33,0,0,1-1.33,2.61l-65.79,63.48c-2.27,2.19-2.29,2.19.34,4.07a122,122,0,0,0,55.64,22.29c33.87,4.44,64.77-3.27,92.5-23.36,1.36-1,1.16-1.44.09-2.47Q291.4,327.15,258.19,295a3,3,0,0,1-1.07-2.38q.09-54.45.12-108.89c0-.34,0-1,.07-1.46.57,1.1.77,1.4,1,1.93q16.28,35,32.51,70.09a9,9,0,0,0,2,2.79q32.9,31.74,65.75,63.52c1.08,1,1.36.77,2-.37a122.35,122.35,0,0,0,14.74-52.38c1.81-37.94-11-70.3-37.65-97.22-1-1-1.11-1.47-.16-2.57Q353.14,150,368.7,131.79c.69-.8,1.06-1.35,2.19-.27,27.57,26.38,45.26,58.19,52.65,95.65A173.15,173.15,0,0,1,426,276.69,176.9,176.9,0,0,1,325.28,420.64a167.58,167.58,0,0,1-52.56,15.46c-53.08,6.12-100.15-8-140.42-43.22C102.31,366.63,84,333.4,76,294.45a162.63,162.63,0,0,1-2.86-21.9c0-.42.2-.94-.35-1.22Z"/><path class="cls-1" d="M259.14,83.62c1.87.66,3.84.43,5.76.6a176.48,176.48,0,0,1,94.4,37.32c1.08.84,1.1,1.33.21,2.37Q343.84,142,328.3,160.16c-.84,1-1.37,1.1-2.46.28a125.14,125.14,0,0,0-54.46-23.81,123,123,0,0,0-43.25.09A125.33,125.33,0,0,0,175.58,159c-1.05.77-2.62,2.27-3.82,1.07-.76-.77-21.42-24.3-31.11-35.55-1.65-1.91-1.66-1.91.26-3.41a176,176,0,0,1,80-35.14,158.74,158.74,0,0,1,18.15-2c.38,0,.82.12,1.09-.31Z"/></svg>