<svg id="Слой_1" data-name="Слой 1" xmlns="http://www.w3.org/2000/svg" viewBox="0 0 35 35"><defs><style>.cls-1{fill:#fff;}.cls-2{fill:#3a97ad;}</style></defs><title>icons</title><path class="cls-1" d="M32.7,30.32a.07.07,0,0,0,.07-.09A2.4,2.4,0,0,0,31,28.72a10.12,10.12,0,0,0-2-.17,1.39,1.39,0,0,1-1.59-1.61c0-.27.25-.38.54-.38a3.52,3.52,0,0,0,1.23-.18c.48-.32.22-1.48,0-2.85a.73.73,0,0,0-.7-.61c-.72,0-1.53,0-2.16,0a24.33,24.33,0,0,0-9.19,1.85h0a16.37,16.37,0,0,1-6.58,1.13,43.38,43.38,0,0,1-5.82-.53c-.6-.1-1.32,2.21-1.42,2.75-.14.83.37,1.46,1.3,1.79a8.09,8.09,0,0,0,2.77.36H32.7Zm-9.28-3.94c.31.28.88.19,1.24.19a.57.57,0,0,1,.59.34c.29.85,0,1.65-1.13,1.64-1.7,0-8.05,0-9.53,0A1.24,1.24,0,0,1,13.39,28c-.44-.84-.27-1.08.58-1.13,2.75-.28,5.7-1.76,7-2a4.51,4.51,0,0,1,1.1-.16C23.69,24.74,22.64,25.68,23.42,26.37ZM8.06,28.54H6.64a6.5,6.5,0,0,1-1-.06c-.38-.06-.58-.27-.54-.59a2.59,2.59,0,0,1,.27-.84c.09-.48,1.21-.34,1.75-.3.82.06,2.53.16,3.34.19.22,0,.44,0,.52.26A1,1,0,0,1,10,28.54Z"/><path class="cls-1" d="M28.57,13.55c-.46-4.87,1.5-5.81-1.8-5.78-2.42,0-4.48-4.05-5.6-4.33a1.94,1.94,0,0,0-2.42.89,6.1,6.1,0,0,0-.66,1.59s-.7,2.48-.87,3c-.09.29-.15.3.13.66l2.13,2.49a.94.94,0,0,1,0,1.35.87.87,0,0,1-.51.19,1.07,1.07,0,0,1-.86-.38S17,12,16.44,11.34c-.14-.16-.32-.17-.4,0s-.43.6-.64.88l-.26.33c-.07.09-.17.13,0,.41.44.57,1.7,2.06,1.7,2.06a.94.94,0,0,1-.07,1.34.87.87,0,0,1-.51.18,1.07,1.07,0,0,1-.86-.39l-1.51-1.81c-.11-.14-.2-.24-.43-.08l-1,.76c-.22.15-.19.34,0,.57l1.25,1.6a.93.93,0,0,1-.12,1.34.88.88,0,0,1-.52.16,1.08,1.08,0,0,1-.84-.42L10.9,16.53c-.21-.28-.38-.31-.59-.19-.54.31-1.13.62-1.58.85l-.65.32h0c-.68.34-1.13.54-1.13.54l-.56.25h0c-2.81,1.27-3.57,1.46-3.61,3.56-.05,2.73,1.12,2.55,5.32,3C16,25.59,18,22,25.74,21.91,33.63,21.84,28.91,17.16,28.57,13.55Z"/><rect class="cls-2" x="13.83" y="24.52" width="1.06" height="1.06" transform="translate(-5.37 3.97) rotate(-13.29)"/></svg>