<svg viewBox="0 0 35 35" fill="none" xmlns="http://www.w3.org/2000/svg">
    <path d="M28.018 6.62893C26.2715 6.31897 24.4722 6.57117 22.726 6.74864C20.9862 6.9255 19.1696 7.14195 17.4459 6.7215C15.4163 6.22647 14.1323 4.85554 13.1855 2.99805C12.9244 3.72587 12.6634 4.45361 12.4024 5.1815C10.6947 9.94288 8.98702 14.7043 7.27936 19.4656L2.66876 32.3213L4.44934 32.9994L8.59864 21.4301C9.36871 22.2767 10.3194 22.8914 11.5399 23.1891C13.2635 23.6093 15.0803 23.3932 16.8199 23.2163C18.566 23.0385 20.3655 22.7865 22.112 23.0965C24.3562 23.4948 25.8062 24.8799 26.8439 26.9162C28.8128 21.427 30.7814 15.9378 32.75 10.4486C31.7121 8.41225 30.2625 7.02737 28.018 6.62893ZM28.2368 16.4021C27.3588 15.6385 26.4163 15.1279 25.2798 14.9028C24.9007 15.9596 24.5216 17.0164 24.1426 18.0732C25.2792 18.2984 26.2215 18.8091 27.0997 19.5726C26.7522 20.5417 26.4045 21.5109 26.057 22.4799C25.179 21.7164 24.2363 21.2054 23.0998 20.9806C23.4474 20.0114 23.795 19.0422 24.1426 18.0732C22.9854 17.8809 21.8555 17.882 20.6879 17.9556C20.3404 18.9247 19.9926 19.8939 19.6451 20.863C18.437 20.9636 17.2329 21.1064 16.0249 21.2068C16.3724 20.2375 16.72 19.2684 17.0675 18.2995C15.8999 18.3732 14.7699 18.3744 13.6127 18.1819C13.2652 19.1511 12.9176 20.1202 12.57 21.0892C11.4336 20.8643 10.4907 20.3534 9.61286 19.5898C9.96037 18.6208 10.308 17.6516 10.6555 16.6825C11.5337 17.4462 12.4762 17.9569 13.6127 18.1819C13.9917 17.1251 14.3709 16.0682 14.7498 15.0114C13.6133 14.7868 12.6707 14.2754 11.7926 13.5122C12.1717 12.4552 12.5508 11.3983 12.9298 10.3415C13.8079 11.1054 14.7504 11.6155 15.8869 11.841C16.2345 10.8718 16.5821 9.90275 16.9297 8.93374C18.0869 9.12605 19.217 9.12496 20.3845 9.05112C20.037 10.0202 19.6893 10.9893 19.3417 11.9584C20.5498 11.8579 21.7538 11.7152 22.962 11.6147C23.3095 10.6456 23.6572 9.67646 24.0047 8.70731C25.1725 8.63361 26.3022 8.63245 27.4595 8.82483C27.1119 9.79398 26.7643 10.7631 26.4167 11.7323C27.5533 11.9575 28.4957 12.468 29.3739 13.2315C28.995 14.2884 28.6161 15.3453 28.2368 16.4021Z" fill="white"/>
    <path d="M18.2047 15.1309C17.8257 16.1877 17.4467 17.2445 17.0676 18.3014C18.2757 18.2007 19.4798 18.058 20.6879 17.9575C21.0669 16.9008 21.446 15.8439 21.825 14.7871C20.6168 14.8877 19.4128 15.0304 18.2047 15.1309Z" fill="white"/>
    <path d="M18.2047 15.1297C18.5838 14.0729 18.9628 13.016 19.3418 11.9592C18.1739 12.0327 17.0444 12.034 15.8869 11.8418C15.5079 12.8986 15.1288 13.9555 14.7498 15.0122C15.9071 15.2048 17.0369 15.2036 18.2047 15.1297Z" fill="white"/>
    <path d="M22.962 11.6144C22.583 12.6711 22.204 13.7279 21.825 14.7848C22.9927 14.7113 24.1224 14.7101 25.2797 14.9024C25.6587 13.8456 26.0378 12.7887 26.4168 11.7319C25.2596 11.5396 24.1298 11.5405 22.962 11.6144Z" fill="white"/>
</svg>
