<svg id="Слой_1" data-name="Слой 1" xmlns="http://www.w3.org/2000/svg" viewBox="0 0 35 35"><defs><style>.cls-1{fill:#fff;}</style></defs><title>icons</title><path class="cls-1" d="M11.36,20.23c-3.17,0-3.25,0-4,0a.17.17,0,0,1-.16-.18c.07-1,.52-2.19,1.29-2.49a2,2,0,0,1,2.42.81,4.72,4.72,0,0,1,.6,1.67A.17.17,0,0,1,11.36,20.23Z"/><path class="cls-1" d="M31.19,20a10.46,10.46,0,0,0-5.65-3.63,1.42,1.42,0,0,0-1.73.84l-.12.29a5.37,5.37,0,0,1-3.77,3.7c-.39.09-4.18.11-8.41.11-3.72,0-6.2,0-8.15,0a1.39,1.39,0,0,0-1.3.88c-.53,1.35-1,2.57-1.31,3.39a.16.16,0,0,0,.15.21c2,0,16.93,0,25.92,0a5.35,5.35,0,0,0,4.27-1.48A3.47,3.47,0,0,0,31.19,20Z"/><path class="cls-1" d="M6.17,27.94H3.37a.56.56,0,0,1,0-1.12h0c.23,0,22.93.09,24.82-.09a5.74,5.74,0,0,0,5-3.44.56.56,0,0,1,1.05.36,6.79,6.79,0,0,1-5.92,4.19C26.74,28,12.37,27.94,6.17,27.94Z"/><path class="cls-1" d="M10.74,12.09A2.21,2.21,0,0,1,13,14.31a2.25,2.25,0,0,1-2.2,2.29,2.28,2.28,0,0,1-2.3-2.26A2.24,2.24,0,0,1,10.74,12.09Z"/><path class="cls-1" d="M18.88,12.2a2.21,2.21,0,0,1,2.26,2.21,2.25,2.25,0,0,1-2.2,2.29,2.28,2.28,0,0,1-2.3-2.26A2.24,2.24,0,0,1,18.88,12.2Z"/><path class="cls-1" d="M19.16,20.23c-3.27,0-3.29,0-4.06,0a.13.13,0,0,1-.13-.14c.07-1,.51-2.22,1.29-2.53a2,2,0,0,1,2.42.81,4.77,4.77,0,0,1,.6,1.71A.13.13,0,0,1,19.16,20.23Z"/></svg>