<svg id="Слой_1" data-name="Слой 1" xmlns="http://www.w3.org/2000/svg" viewBox="0 0 35 35"><defs><style>.cls-1{fill:#fff;}</style></defs><title>icons</title><path class="cls-1" d="M21,20.62a.26.26,0,0,1,.35-.09c.6.36,1.58.78,2,1.07,1.33.85-1,4.64.11,4.74,1.38.13,2.5-4.1,2.64-4.52.53-1.64-1.93-2.57-2.76-3.17-.16-.11-.59-.47-.43-.87.31-.72.64-1.5.95-2.24a.27.27,0,0,1,.3-.15,15.27,15.27,0,0,0,5.79,0L32,26a.58.58,0,0,0,.57.47h0a.58.58,0,0,0,.46-.68L30.58,12.95a.58.58,0,0,0-.68-.46.51.51,0,0,0-.38.66l.17.86a16.25,16.25,0,0,1-6.62-1.77,1.89,1.89,0,0,0-2.64,1.28c-.2.85-.36,1.72-.61,2.56-2.29,7.65-10.42,10.64-10.2,12C10.35,29.24,17.7,25.33,21,20.62Z"/><path class="cls-1" d="M23.49,11.11A2,2,0,0,0,25.5,9a2,2,0,0,0-2.06-2,2,2,0,0,0-2,2A2.07,2.07,0,0,0,23.49,11.11Z"/><path class="cls-1" d="M16.77,17.14l.61.2a.74.74,0,0,0,.95-.5c.52-1.87,1-3.68,1.52-5.51a2.74,2.74,0,0,0-.72-2.19A.74.74,0,0,1,19,8.41L20.68,3.2A.18.18,0,0,0,20.54,3l-.31-.07a.18.18,0,0,0-.21.24,1.29,1.29,0,0,1,.12.72l-1.8,5.44-1.1,3.36a.18.18,0,0,0,.12.23l.27.08a.18.18,0,0,1,.12.25l-1.3,3.17A.56.56,0,0,0,16.77,17.14Z"/><path class="cls-1" d="M18.64,32c-1.92-.47-16.2-5.47-16.89-5.71a.56.56,0,0,0-.18,0,.53.53,0,0,0-.23.05.54.54,0,0,0,.06,1c1.74.61,15.06,5.26,17,5.74a6.38,6.38,0,0,0,1.53.2,3,3,0,0,0,1.55-.34.54.54,0,0,0,0-.81c-.21-.24-.62-.08-.63-.08h0A3.48,3.48,0,0,1,18.64,32Z"/><path class="cls-1" d="M31.68,28.21c-2,0-14.74-1.52-15.46-1.6-.06,0-.55,0-.6.47a.54.54,0,0,0,.47.59c1.83.21,13.57,1.57,15.57,1.61a6.38,6.38,0,0,0,1.54-.14,3,3,0,0,0,1.44-.67.54.54,0,0,0-.14-.8c-.25-.19-.63.06-.63.06h0A3.48,3.48,0,0,1,31.68,28.21Z"/></svg>