<svg id="Слой_1" data-name="Слой 1" xmlns="http://www.w3.org/2000/svg" viewBox="0 0 35 35"><defs><style>.cls-1{fill:#fff;}</style></defs><title>icons</title><circle class="cls-1" cx="26.5" cy="24.36" r="6.86"/><path class="cls-1" d="M31.51,17.88A14.11,14.11,0,0,0,28.06,9.1c-2.57-2.51-6.52-3.9-11.12-3.9-.6,0-1.18,0-1.75.07s-1.38.17-2,.29a14.47,14.47,0,0,0-6.62,3l-.33.31C5.84,9.17,5,10.08,5,10.08a12.14,12.14,0,0,0-2.65,8c0,.51,0,1,.09,1.49a12.85,12.85,0,0,0,.9,3.62l.06.15h0c2,4.74,7.07,7.56,13.51,7.56a22.33,22.33,0,0,0,3.66-.31.16.16,0,0,0,.09-.26c-.19-.21-.37-.42-.54-.65a.16.16,0,0,0-.15-.06,21.62,21.62,0,0,1-3.06.22c-5.17,0-9.58-2.06-12.15-6.11a.16.16,0,0,1,.2-.23,23.66,23.66,0,0,0,7.87,2.13,29.61,29.61,0,0,0,5.34.12.16.16,0,0,0,.14-.18A7.74,7.74,0,0,1,21.64,18c4.24-3,8.81-.59,9.14-.41s.33.19.55.34S31.51,17.88,31.51,17.88ZM6.81,23.95c-.36-.15-.68-.3-1-.46C6.11,23.62,6.44,23.77,6.81,23.95ZM7,9.52c.14-.13.29-.25.44-.37l.59-.43c.16-.11.32-.22.49-.32L9.2,8l.53-.27.72-.31c.18-.08.37-.16.56-.22s.52-.18.79-.25l.58-.17.87-.19.58-.11c.33-.05.68-.09,1-.12l.51-.06c.52,0,1-.06,1.59-.06s1,0,1.54.06l.48,0,1,.11.55.11c.29.05.57.11.85.18l.55.15.77.22.54.2.7.28.51.24c.22.11.44.22.65.34l.47.28c.2.12.39.25.59.39l.43.32h0a.16.16,0,0,1,0,.27,24.29,24.29,0,0,1-9.73,2A25.41,25.41,0,0,1,7,9.82a.16.16,0,0,1,0-.27Z"/></svg>