<svg id="Слой_1" data-name="Слой 1" xmlns="http://www.w3.org/2000/svg" viewBox="0 0 35 35"><defs><style>.cls-1{fill:#fff;}</style></defs><title>icons</title><path class="cls-1" d="M26.33,16.24,26,16.1a2.51,2.51,0,0,0-3.57,1.63v.05a.92.92,0,0,0,.13.8,11.31,11.31,0,0,1,3.78,5.67c.91,3.78-.5,8.89-2.29,8.68-1.63-.19,3.15-8.45-6.44-13-.92-.44-1.47-1.27-1-2.8A13.55,13.55,0,0,0,17,14.46c0-.65.14-1.93-.85-2.48a2,2,0,0,0-2.33.33c-1.43,1.52,1.66,4.17,1.2,4.77C14,18.5,9.78,13.75,11.7,10.72,13.19,8.36,16.76,7.66,20.53,9c4.78,1.72,6.1,4.74,8.1,4.86,2.64.14,3.09-1.62,4.25-1.53C34.75,12.49,31.54,18,26.33,16.24Z"/><path class="cls-1" d="M18.86,21.85s0,.15-.06.19c-4,8-15,6.75-15,4.74,0-1.59,8.66.31,12.08-6.6,0-.05.08-.07.16,0C16.94,20.81,18,21.24,18.86,21.85Z"/><path class="cls-1" d="M22,8.22a3,3,0,1,0-3-3A3,3,0,0,0,22,8.22Z"/></svg>