<svg id="Слой_1" data-name="Слой 1" xmlns="http://www.w3.org/2000/svg" viewBox="0 0 500 500"><defs><style>.cls-1{fill:#fff;}</style></defs><title>icons</title><path class="cls-1" d="M91.56,99.34c106.15,0,205,.23,311.19.23,4.67,0,7.79,4.61,7.79,9.18,0,104.22-.3,198.3-.31,302.52,0,7.61-6.29,10.59-11.52,10.59-105.92,0-201.38.15-307.31.15-6,.08-8.87-4.69-8.87-9.18,0-104.68.23-200.19.23-304.86A8.85,8.85,0,0,1,91.56,99.34ZM116.8,164.7c7.54,8,14.93,15.77,22.32,23.57L246.24,301.15q32.51,34.26,65.07,68.46a8,8,0,0,0,4.78,2.54c11.43.39,22.88.41,34.31.71,2.5.07,3.54-.81,4.28-3.15q9-28.67,18.31-57.25c.9-2.76.34-4.21-2.05-5.83q-42.6-28.9-85.06-58-67.34-46-134.7-91.92c-1.36-.92-2.93-2-4.47-2.1-10.69-.82-19.61,4.5-28.86,8.64C117.49,163.43,117.31,164,116.8,164.7Zm93.42,197.46-66.11-64.32c-7.56,17.21-14.88,33.76-22.07,50.36-1.19,2.76.48,7.41,2.94,9.37q10.9,8.66,21.85,17.27c.87.68,1.93,1.62,2.88,1.6,6.63-.17,13.47.38,19.81-1.12,9.65-2.27,19-6,28.41-9.13Zm67.36-191.62,64.2,49c2.74-16.27,5.37-31.62,7.8-47,.17-1.06-.86-2.76-1.83-3.47-6.2-4.54-12.6-8.82-18.82-13.34a5.78,5.78,0,0,0-6-.69c-10.67,3.74-21.4,7.3-32.1,10.94C286.73,167.36,282.6,168.81,277.58,170.54Z"/></svg>