<svg xmlns="http://www.w3.org/2000/svg" width="30" height="30" viewBox="0 0 30 30">
    <path fill="#FFF" fill-rule="evenodd" d="M0 15c0 2.964.86 5.728 2.344 8.055v4.601h4.601A14.93 14.93 0 0 0 15 30c2.964 0 5.728-.86 8.055-2.344h4.601v-4.601A14.93 14.93 0 0 0 30 15c0-2.964-.86-5.728-2.344-8.055V2.344h-4.601A14.93 14.93 0 0 0 15 0c-2.964 0-5.728.86-8.055 2.344H2.344v4.601A14.93 14.93 0 0 0 0 15zM5 5h2.241A12.602 12.602 0 0 1 15 2.344c2.924 0 5.616.991 7.759 2.656H25v2.241A12.602 12.602 0 0 1 27.656 15c0 2.924-.991 5.616-2.656 7.759V25h-2.241A12.602 12.602 0 0 1 15 27.656c-2.924 0-5.616-.991-7.759-2.656H5v-2.241A12.602 12.602 0 0 1 2.344 15c0-2.924.991-5.616 2.656-7.759V5zm6.29 3.828H6.25l.358.37a4.687 4.687 0 0 1 1.216 2.264l.926 4.241 1.095 4.962a.781.781 0 0 1-.138.637l-.957 1.276h5l-.422-.789a.78.78 0 0 1-.048-.63l1.72-4.83 1.688 4.844a.78.78 0 0 1-.039.606l-.399.8h4.922l-.87-1.288a.781.781 0 0 1-.116-.6l1.064-4.988.968-4.297a4.687 4.687 0 0 1 1.16-2.182l.372-.396h-5l.187.48c.234.603.276 1.263.119 1.89l-1.244 4.974-2.851-7.344-2.774 7.344-1.233-4.933a3.125 3.125 0 0 1 .147-1.96l.188-.45z"/>
</svg>
