<svg id="Слой_1" data-name="Слой 1" xmlns="http://www.w3.org/2000/svg" viewBox="0 0 35 35"><defs><style>.cls-1{fill:#fff;}</style></defs><title>icons</title><path class="cls-1" d="M9.54,16a.22.22,0,0,1,.12-.05H21.24a1.9,1.9,0,0,0,1.9-1.9h0a2.22,2.22,0,0,0-2.22-2.22H11.75a1.29,1.29,0,0,1-1.29-1.29h0A1.57,1.57,0,0,1,12,9h10.7a2.21,2.21,0,0,1,2,1.2L28.23,17a.18.18,0,0,1-.16.26H8.44v-.06"/><path class="cls-1" d="M2.28,24.8a.23.23,0,0,0-.23.26,5.91,5.91,0,0,0,5.84,5.11H28.06A5.91,5.91,0,0,0,33.91,25a.14.14,0,0,0-.14-.16Z"/><path class="cls-1" d="M33.74,23.56a.14.14,0,0,0,.14-.16,5.91,5.91,0,0,0-5.82-5H7.89a5.91,5.91,0,0,0-5.82,5,.14.14,0,0,0,.14.16Z"/></svg>