<svg id="Слой_1" data-name="Слой 1" xmlns="http://www.w3.org/2000/svg" viewBox="0 0 35 35"><defs><style>.cls-1{fill:#fff;}</style></defs><title>icons</title><path class="cls-1" d="M10.54,22.62c2.5-2,6.37-3.18,6.5-7.5.2-6.58,7.73-13.36,9.38-11.17,1.27,1.68-8.46,7.49-4.54,14,1.88,3.14,4.39,3.69,4.37,4.2s-3-.56-9.49,1.75c-3.55,1.26-6.33,2-7.88,1.58C8.14,25.33,8.32,24.44,10.54,22.62Z"/><circle class="cls-1" cx="26.02" cy="16.46" r="3.15" transform="translate(-1.55 30.16) rotate(-58.75)"/><path class="cls-1" d="M18.82,28.31c-.23.12-.14.3,0,.3H30.36c.07,0,.1-.11.07-.17C30.18,28,23.57,25.75,18.82,28.31Z"/><path class="cls-1" d="M1.82,24.91c.31-.31,2.69,1.62,8.5,1.62,4.2,0,8.68-3.09,13.94-3.09,5.07,0,9,3.68,8.85,4.26S29.32,26.06,24.41,26c-5.92,0-7.93,3.08-14.33,3.06C5,29.07,1.32,25.41,1.82,24.91Z"/></svg>