<svg id="Слой_1" data-name="Слой 1" xmlns="http://www.w3.org/2000/svg" viewBox="0 0 35 35"><defs><style>.cls-1{fill:#fff;}</style></defs><title>icons</title><path class="cls-1" d="M12.13,28.19a.16.16,0,0,1,.16.18,4.48,4.48,0,0,1-4.51,3.8,4.51,4.51,0,0,1-4.3-3.9c0-.05.05-.09.11-.09h2a.15.15,0,0,1,.15.13,2.18,2.18,0,0,0,2.14,1.91A2.14,2.14,0,0,0,10,28.33a.16.16,0,0,1,.16-.14Z"/><path class="cls-1" d="M28.54,23.45a.41.41,0,0,1-.41-.37c0-.34-.05-.68.12-.85s.52-.22.93-.34c2.12-.63,1.6-3.19,1.52-4.11a52.41,52.41,0,0,0-1.14-5.51c-.43-2.63,2.52-9.39-3.2-8.86a6.87,6.87,0,0,1-2.75-.89,4.9,4.9,0,0,0-3.71-.83,1.48,1.48,0,0,0-1.17,2c.26.94.37,1.2.68,2.14a7.28,7.28,0,0,1-.53,4.92c-.37.62-.67.33.47,2.28l.32.56a.93.93,0,1,1-1.61.93L17.73,14c-.31-.53-.57-1-.89-1.5a.22.22,0,0,0-.28-.08l-1.33.66a.12.12,0,0,0-.06.16l1.07,2.06a.93.93,0,0,1-1.65.86L13.5,14a.15.15,0,0,0-.19-.07L12,14.54a.19.19,0,0,0-.09.25c.28.59.61,1.28.9,1.88a.93.93,0,0,1-1.67.82c-.29-.59-.61-1.25-.88-1.84a.31.31,0,0,0-.32-.16c-6.13,1.21-8.15,2-7.13,5.63,0,.1.05.19.08.29l-.08-.29A2.4,2.4,0,0,0,5.14,23h.73c.66,0,.83.32.84.9,0,.31-.08.42-1,.49-2.31.18-2.84,1.05-2.79,2.32a.36.36,0,0,0,.36.33l29,.07c.48,0,0-1.66-.44-2.27C31.26,24,30.43,23.44,28.54,23.45Zm-3.37.09L9,24.11A.14.14,0,0,1,8.84,24l0-.65c0-.27.31-.4.47-.42,3.68-.26,13.34-.65,15.44-.75a.65.65,0,0,1,.66.52c0,.07,0,.37,0,.59A.24.24,0,0,1,25.17,23.54Z"/><path class="cls-1" d="M22,28.19a.16.16,0,0,1,.16.18,4.45,4.45,0,0,1-8.81-.1c0-.05.05-.09.11-.09h2a.15.15,0,0,1,.15.13,2.18,2.18,0,0,0,2.14,1.91,2.14,2.14,0,0,0,2.16-1.89.16.16,0,0,1,.16-.14Z"/><path class="cls-1" d="M31.92,28.19a.16.16,0,0,1,.16.18,4.45,4.45,0,0,1-8.81-.1c0-.05.05-.09.11-.09h2a.15.15,0,0,1,.15.13,2.18,2.18,0,0,0,2.14,1.91,2.14,2.14,0,0,0,2.16-1.89.16.16,0,0,1,.16-.14Z"/></svg>