<svg id="Слой_1" data-name="Слой 1" xmlns="http://www.w3.org/2000/svg" viewBox="0 0 500 500"><defs><style>.cls-1{fill:#fdfefe;}</style></defs><title>icons_</title><path class="cls-1" d="M34.51,270.94a99.65,99.65,0,0,1,20.1-20.26c18-13.52,38.24-20.79,60.78-20.85,54.56-.15,109.13-.08,163.69-.1q29.63,0,59.27,0a16.79,16.79,0,0,0,16.64-14c1.09-7.21-3.38-12.83-10.66-13.37-1.12-.08-2.26,0-3.39,0H168.84c-.24-1.2.62-1.67,1.13-2.25,17.54-19.93,39-33,65.38-37.65a85.73,85.73,0,0,1,14.88-1.27q50.24,0,100.47,0c20.27,0,36.6,10.62,43.21,28.14,5.79,15.34,3.68,30.28-3.81,44.38-10.69,20.13-27.35,32.59-50,36.63a51.37,51.37,0,0,1-9,.67q-146.62,0-293.24,0Z"/><path class="cls-1" d="M473,298.25a105.37,105.37,0,0,1-17.42,17.33c-19.93,15.69-42.33,24.07-68,24-56.81-.24-113.63.22-170.43-.23-28-.22-49.92-12.33-64.09-37.1-2.23-3.9-2.15-3.95,2.4-3.95H473Z"/></svg>