<svg id="Слой_1" data-name="Слой 1" xmlns="http://www.w3.org/2000/svg" viewBox="0 0 35 35"><defs><style>.cls-1{fill:#fff;}</style></defs><title>icons</title><path class="cls-1" d="M2,25.77v-2c0-.11,0-.21,0-.32A18.88,18.88,0,0,1,2.63,20a16.53,16.53,0,0,1,1.29-3.39,10.61,10.61,0,0,1,2.81-3.69,5.92,5.92,0,0,1,3.35-1.29,8.54,8.54,0,0,1,5,1.35,3.55,3.55,0,0,0,1.76.61c.61,0,1.23,0,1.84,0a3.13,3.13,0,0,0,1-.23c.47-.2.9-.47,1.35-.71a8.48,8.48,0,0,1,3.72-1,6.16,6.16,0,0,1,4.65,1.81A10.61,10.61,0,0,1,31.31,16a17,17,0,0,1,2.09,6.49c0,.43.1.86.15,1.29v2c0,.41-.09.81-.15,1.22a7.23,7.23,0,0,1-.67,2.56,2.58,2.58,0,0,1-3.57.94,12.41,12.41,0,0,1-1.84-1.32c-.93-.82-1.81-1.67-2.66-2.56a2.86,2.86,0,0,0-2.32-1c-.54,0-1.07,0-1.61,0H12.92a2.24,2.24,0,0,0-1.59.58c-.34.32-.66.66-1,1A21.33,21.33,0,0,1,6.7,30.34a2.83,2.83,0,0,1-1.36.51,2.57,2.57,0,0,1-2.67-1.59A8.42,8.42,0,0,1,2.16,27C2.11,26.59,2.06,26.18,2,25.77Zm7.62-5.64c0,.56,0,1.1,0,1.63a.42.42,0,0,0,.31.44,2.16,2.16,0,0,0,1.7,0,.28.28,0,0,0,.2-.3c0-.48,0-1,0-1.44,0-.09,0-.18,0-.25l.1,0h1.84A.38.38,0,0,0,14,20a1.57,1.57,0,0,0,0-1.76.36.36,0,0,0-.34-.18H12.16c-.2,0-.26,0-.26-.23,0-.51,0-1,0-1.53a.29.29,0,0,0-.13-.23A2.7,2.7,0,0,0,9.92,16c-.15,0-.21.12-.2.26,0,.51,0,1,0,1.53,0,.08,0,.16,0,.27h-2a.33.33,0,0,0-.24.11,1.8,1.8,0,0,0,0,1.7.36.36,0,0,0,.39.22C8.43,20.12,9,20.13,9.63,20.13Zm18.53.17a1.58,1.58,0,1,0-1.71-1.56A1.66,1.66,0,0,0,28.16,20.3Zm-6,.45a1.63,1.63,0,0,0,1.69,1.57,1.67,1.67,0,0,0,1.72-1.58,1.65,1.65,0,0,0-1.71-1.58A1.62,1.62,0,0,0,22.2,20.74Zm0-4.36A1.63,1.63,0,0,0,23.9,18a1.58,1.58,0,1,0,0-3.14A1.62,1.62,0,0,0,22.2,16.38Z"/><path class="cls-1" d="M18.21,12.51l-1.05,0h0c0-.25-.07-2.44-3-2.63a4.65,4.65,0,0,1-3.7-2,2.2,2.2,0,0,1-.05-2.15c.7-1.35,2.61-1.29,4.82-1.23S19.76,4.62,21,3.4l.73.76c-1.59,1.53-4.2,1.45-6.51,1.38-1.78-.05-3.47-.1-3.86.66a1.15,1.15,0,0,0,0,1.15,3.64,3.64,0,0,0,2.86,1.47C18.23,9.07,18.21,12.47,18.21,12.51Z"/></svg>