<svg id="Слой_1" data-name="Слой 1" xmlns="http://www.w3.org/2000/svg" viewBox="0 0 35 35"><defs><style>.cls-1{fill:#fff;}</style></defs><title>icons</title><path class="cls-1" d="M18.22,2.57A15.43,15.43,0,1,0,33.65,18,15.45,15.45,0,0,0,18.22,2.57Zm0,29.79A14.35,14.35,0,1,1,32.57,18,14.37,14.37,0,0,1,18.22,32.35Z"/><path class="cls-1" d="M18.05,16.55a.61.61,0,0,0,.61,0,1.1,1.1,0,0,0,.64-1,.83.83,0,0,0-.25-.64,1,1,0,0,0-.68-.24,1,1,0,0,0-.68.25.83.83,0,0,0-.27.64A1.09,1.09,0,0,0,18.05,16.55Z"/><path class="cls-1" d="M18.46,18.08a.43.43,0,0,0-.34,0,1.36,1.36,0,0,0-.93,1.25.88.88,0,0,0,.34.71,1.38,1.38,0,0,0,1.66,0,.91.91,0,0,0,.32-.72Q19.49,18.5,18.46,18.08Z"/><path class="cls-1" d="M18.29,10a7.83,7.83,0,1,0,7.83,7.83A7.83,7.83,0,0,0,18.29,10Zm2.06,11a3.41,3.41,0,0,1-2.15.6A3,3,0,0,1,16.28,21a1.9,1.9,0,0,1-.73-1.56,2.19,2.19,0,0,1,1.58-2.07v0a1.87,1.87,0,0,1-1.35-1.79A1.85,1.85,0,0,1,16.5,14a2.86,2.86,0,0,1,1.87-.59,2.92,2.92,0,0,1,1.86.55,1.73,1.73,0,0,1,.7,1.42,2,2,0,0,1-1.49,1.9v0a2.44,2.44,0,0,1,1.24.78,1.87,1.87,0,0,1,.44,1.21A2,2,0,0,1,20.35,21Z"/></svg>