<svg id="Слой_1" data-name="Слой 1" xmlns="http://www.w3.org/2000/svg" viewBox="0 0 35 35"><defs><style>.cls-1{fill:#fff;}</style></defs><title>icons</title><path class="cls-1" d="M9.76,1.92a.08.08,0,0,1,.11-.11A56.63,56.63,0,0,1,20.54,10.3,69.1,69.1,0,0,1,29.9,22.66a.08.08,0,0,1-.11.11,8.06,8.06,0,0,0-6.41-.88c-2.05.61-3.53,3-3.91,3.64a.08.08,0,0,1-.14,0c-.21-.88-.09-3.66-3.12-11.52A47.34,47.34,0,0,0,9.76,1.92Z"/><path class="cls-1" d="M6.85,15.52c.17,1.91.89,4.85,5.85,5.42,3.78.44,3.86,6.23,5.14,5.87.81-.22,0-5.87-2.12-7.29-2.41-1.6-4.89-.36-5.21-4.33a.6.6,0,0,1,.65-.64c3.42.37,7.25.4,6.95-.78s-4.09-.59-6.67-1.57C8.44,11.06,6.53,12.11,6.85,15.52Z"/><path class="cls-1" d="M9,6.23a2.29,2.29,0,1,1-.91,4.49A2.29,2.29,0,0,1,9,6.23Z"/><path class="cls-1" d="M16.81,31.4c.21.11.13.27,0,.27H6.46c-.06,0-.09-.1-.06-.16C6.63,31.09,12.55,29.11,16.81,31.4Z"/><path class="cls-1" d="M32.21,28.25c-.28-.28-2.42,1.46-7.62,1.46-3.76,0-7.79-2.77-12.5-2.77-4.55,0-8.1,3.3-7.94,3.82s3.4-1.47,7.81-1.5c5.31,0,7.11,2.76,12.85,2.75C29.4,32,32.65,28.7,32.21,28.25Z"/></svg>