<svg xmlns="http://www.w3.org/2000/svg" viewBox="0 0 500 500">
    <style type="text/css">
        .st0{fill:#FFFFFF;}
    </style>
    <path class="st0" d="M210.3,218.7c-0.5-0.2-1-0.1-1.4-0.1c-17.2,0-34.4,0-51.5,0c-0.2,0-0.4,0-0.6,0c-0.7-0.1-1,0.2-1.2,0.9
	c-0.8,3.6-1.7,7.1-2.5,10.7c-0.4,1.9-0.4,1.9-2.4,1.9c-14.9,0-29.8,0-44.8,0c-0.6,0-1.2,0.1-1.8-0.2c0.9-4.3,1.7-8.6,2.6-12.9
	c1.6-7.9,3.3-15.9,4.9-23.8c0.2-1.2,0.7-2.3,1.2-3.5c1.7-4,3.9-7.6,7-10.7c3.6-3.5,7.8-5.5,12.9-5.5c4.1-0.1,8.1-0.1,12.2-0.2
	c12.1-0.2,24.2-0.1,36.3-0.1c22.1,0.1,44.2,0.2,66.3,0.3c2,0,4-0.2,6,0.2c6.1,0.9,10.3,5.4,11.2,11.5c0.5,3.7-0.1,7.2-0.8,10.8
	c-2.4,12.7-5.2,25.3-8.3,37.8c-0.7,2.9-2.3,5.4-4.2,7.7c-2.7,3.2-6,5.7-9.7,7.8c-5.5,3.2-11.3,5.9-17,8.8c-3.7,1.9-7.5,3.7-11.2,5.6
	c-10.5,5.5-21.3,10.6-32,15.8c-0.3,0.1-0.5,0.3-0.8,0.4c0.3,0.4,0.7,0.3,1.1,0.3c8.9,0.1,17.7,0.1,26.6,0.1c9.5,0,19.1,0.1,28.6,0.1
	c2.3,0,4.6,0,6.9,0.1c1.2,0,1.2,0,0.9,1.2c-1.7,7.9-3.5,15.8-5.2,23.8c-1.4,6.3-2.8,12.7-4.2,19c-0.3,1.2-0.3,1.2-1.4,1.2
	c-0.2,0-0.5,0-0.7,0c-48.2,0-96.5,0-144.7,0c-2.8,0-2.9-0.2-2.3-3c2.4-10.9,4.7-21.8,7.1-32.7c0.2-0.9,0.7-1.4,1.5-1.8
	c17.2-9.6,34.3-19.1,51.5-28.7c20.5-11.4,41-22.9,61.5-34.3c0.9-0.5,1.4-1,1.5-2.1c0.3-1.9,0.8-3.8,1.1-5.8
	C210.3,219.1,210.3,218.9,210.3,218.7z"/>
    <path class="st0" d="M433.7,328c0,0-5.9,0-7.4,0.1c-6.2,0.1-12.4,0.2-18.6,0.2c-10.3,0-20.5-0.2-30.8-0.3c-3.6,0-7.1-0.1-10.7-0.2
	c-0.7,0-1.3-0.2-1.8-0.7c-8.1-7.9-16.2-15.7-24.3-23.6c-10-9.7-20-19.3-29.9-29c-0.3-0.3-0.5-0.6-1.1-0.7c-0.4,1.9-0.9,3.8-1.3,5.8
	c-1,4.6-1.9,9.2-3,13.7c-0.6,2.3-1.2,4.6-1.6,6.9c-1.5,8.6-3.7,17.1-5.4,25.7c-0.4,1.9-0.4,1.9-2.3,1.9c-15.5,0-31-0.1-46.5-0.1
	c-1.5,0-2.9,0-4.4,0c-1.2,0-1.3-0.1-1-1.3c0.8-3.7,1.6-7.4,2.3-11c1.5-6.9,2.9-13.9,4.4-20.8c1.6-7.4,3.2-14.9,4.8-22.4
	c3-14,6-28.1,9-42.2c2.8-13.1,5.6-26.3,8.4-39.4c1-4.5,1.9-9,2.9-13.5c0.4-1.6,0.2-1.4,1.7-1.4c17.2,0,34.3,0,51.5,0
	c0.2,0,0.4,0,0.6,0c0.7-0.1,0.8,0.3,0.7,0.9c-0.8,3.7-1.6,7.3-2.4,11c-2.3,10.4-4.5,20.8-6.8,31.2c-0.1,0.5-0.4,0.9-0.1,1.4
	c-0.1-0.1-0.1-0.1-0.2,0c0,0,0,0.1,0,0.1c0.1-0.1,0.1-0.1,0.2-0.2c1.5-0.9,2.7-2.2,4-3.4c15.4-13.4,30.8-26.8,46.3-40.3
	c0.7-0.6,1.4-0.9,2.4-0.9c22.5,0,44.9,0,67.4,0c0.1,0,0.3,0,0.4,0c0.7,0,1.4,0.1,1.7,0.9c0.2,0.7-0.3,1.2-0.8,1.6
	c-4.2,3.4-8.5,6.8-12.7,10.2c-22.7,18.3-45.3,36.5-68,54.8c-2.4,2-4.9,3.9-7.3,5.9c0,0.4,0.3,0.6,0.5,0.7
	c11.5,11.3,23,22.5,34.5,33.8c1.7,1.7,3.5,3.3,5.1,5.1c1.8,2.1,3.7,4,5.8,5.8c4.9,4.5,9.6,9.2,14.4,13.8c0.3,0.3,0.5,0.6,0.9,0.7
	c0.1,0.6,0.6,0.9,1,1.3c1.5,1.4,3,2.8,4.4,4.2c3.1,3,6.2,6.1,9.3,9.2C430.1,324.2,433.7,328,433.7,328z"/>
</svg>
