<svg width="317" height="287" viewBox="0 0 317 287" fill="none" xmlns="http://www.w3.org/2000/svg">
<path fill-rule="evenodd" clip-rule="evenodd" d="M201.801 25L309.622 211.75C328.867 245.083 304.81 286.75 266.32 286.75H50.68C12.19 286.75 -11.8662 245.083 7.3788 211.75L115.199 25C134.444 -8.33338 182.557 -8.33329 201.801 25ZM184.481 35C172.934 15 144.066 15 132.519 35L24.6993 221.75C13.1523 241.75 27.586 266.75 50.68 266.75H266.32C289.414 266.75 303.848 241.75 292.301 221.75L184.481 35ZM79.7994 230.427C79.7994 242.142 70.3024 251.639 58.5872 251.639C46.872 251.639 37.375 242.142 37.375 230.427C37.375 218.712 46.872 209.215 58.5872 209.215C70.3024 209.215 79.7994 218.712 79.7994 230.427ZM124.581 251.639C136.296 251.639 145.794 242.142 145.794 230.427C145.794 218.712 136.296 209.215 124.581 209.215C112.866 209.215 103.369 218.712 103.369 230.427C103.369 242.142 112.866 251.639 124.581 251.639ZM112.797 176.689C112.797 188.404 103.3 197.901 91.5852 197.901C79.8701 197.901 70.373 188.404 70.373 176.689C70.373 164.974 79.8701 155.477 91.5852 155.477C103.3 155.477 112.797 164.974 112.797 176.689ZM124.581 144.163C136.296 144.163 145.794 134.666 145.794 122.95C145.794 111.235 136.296 101.738 124.581 101.738C112.866 101.738 103.369 111.235 103.369 122.95C103.369 134.666 112.866 144.163 124.581 144.163ZM179.733 69.2122C179.733 80.9274 170.236 90.4244 158.521 90.4244C146.806 90.4244 137.309 80.9274 137.309 69.2122C137.309 57.497 146.806 48 158.521 48C170.236 48 179.733 57.497 179.733 69.2122ZM191.517 251.639C203.232 251.639 212.729 242.142 212.729 230.427C212.729 218.712 203.232 209.215 191.517 209.215C179.802 209.215 170.305 218.712 170.305 230.427C170.305 242.142 179.802 251.639 191.517 251.639ZM179.733 176.689C179.733 188.404 170.236 197.901 158.521 197.901C146.806 197.901 137.309 188.404 137.309 176.689C137.309 164.974 146.806 155.477 158.521 155.477C170.236 155.477 179.733 164.974 179.733 176.689ZM191.517 144.163C203.232 144.163 212.729 134.666 212.729 122.95C212.729 111.235 203.232 101.738 191.517 101.738C179.802 101.738 170.305 111.235 170.305 122.95C170.305 134.666 179.802 144.163 191.517 144.163ZM278.723 230.427C278.723 242.142 269.226 251.639 257.511 251.639C245.796 251.639 236.299 242.142 236.299 230.427C236.299 218.712 245.796 209.215 257.511 209.215C269.226 209.215 278.723 218.712 278.723 230.427ZM224.515 197.901C236.23 197.901 245.727 188.404 245.727 176.689C245.727 164.974 236.23 155.477 224.515 155.477C212.8 155.477 203.303 164.974 203.303 176.689C203.303 188.404 212.8 197.901 224.515 197.901Z" fill="white"/>
</svg>
