<svg id="Слой_1" data-name="Слой 1" xmlns="http://www.w3.org/2000/svg" viewBox="0 0 35 35"><defs><style>.cls-1{fill:#fff;}</style></defs><title>icons</title><rect class="cls-1" x="8.08" y="4.19" width="19.85" height="1.05"/><path class="cls-1" d="M8,7c0,3.8,0,23,0,25.82a.23.23,0,0,0,.32.21l9.6-3.65a.24.24,0,0,1,.17,0L27.68,33a.24.24,0,0,0,.32-.22V6.73a.35.35,0,0,0-.35-.35h-19A.63.63,0,0,0,8,7Zm12.7,16.08a5.15,5.15,0,0,1-3.34,1.08,6.19,6.19,0,0,1-3.24-.87.24.24,0,0,1-.07-.26c.28-.65.37-.89.64-1.48a.28.28,0,0,1,.35-.08,8.21,8.21,0,0,0,1.21.48,3,3,0,0,0,2.95-.28,1.54,1.54,0,0,0,.59-1.25,1.85,1.85,0,0,0-.33-1.07,4.35,4.35,0,0,0-1.76-1.12l-1.09-.47a4.52,4.52,0,0,1-2-1.49A3.75,3.75,0,0,1,14,14.05a3,3,0,0,1,.51-1.64,4.28,4.28,0,0,1,3.56-1.72,7.09,7.09,0,0,1,2.57.51c.43.17.75.34.6.77l-.36.89c-.16.44-.49.31-.93.13l-.52-.19a2.83,2.83,0,0,0-2.71.22,1.46,1.46,0,0,0-.48,1.13,1.75,1.75,0,0,0,.17.79,1.67,1.67,0,0,0,.48.59,8.26,8.26,0,0,0,1.39.72l1.11.49A3.92,3.92,0,0,1,22,20.54,3.17,3.17,0,0,1,20.72,23.09Z"/></svg>