<svg id="Слой_1" data-name="Слой 1" xmlns="http://www.w3.org/2000/svg" viewBox="0 0 35 35"><defs><style>.cls-1,.cls-2{fill:none;stroke:#fff;stroke-linecap:round;stroke-miterlimit:10;}.cls-1{stroke-width:3px;}.cls-2{stroke-width:2px;}</style></defs><title>icons</title><line class="cls-1" x1="17.3" y1="12.25" x2="17.3" y2="3.75"/><polyline class="cls-2" points="13.24 5.19 17.43 8.68 21.35 4.99"/><line class="cls-1" x1="17.28" y1="22.43" x2="17.28" y2="31.52"/><polyline class="cls-2" points="21.34 30.08 17.3 26.71 13.23 30.28"/><line class="cls-1" x1="12.93" y1="14.77" x2="5.28" y2="10.36"/><polyline class="cls-2" points="4.5 14.6 9.46 12.77 8.38 7.47"/><line class="cls-1" x1="21.81" y1="19.93" x2="29.32" y2="24.27"/><polyline class="cls-2" points="30.1 20.02 25.37 21.77 26.22 27.15"/><line class="cls-1" x1="12.83" y1="19.87" x2="5.48" y2="24.11"/><polyline class="cls-2" points="8.75 26.91 9.66 21.7 4.54 19.98"/><line class="cls-1" x1="22.05" y1="14.6" x2="29.56" y2="10.28"/><polyline class="cls-2" points="26.28 7.47 25.37 12.69 30.5 14.41"/></svg>