<svg id="Слой_1" data-name="Слой 1" xmlns="http://www.w3.org/2000/svg" viewBox="0 0 500 500"><defs><style>.cls-1{fill:#fff;}</style></defs><title>icons</title><path class="cls-1" d="M207.77,278.59a4.79,4.79,0,0,0-.62.7c-5.31,10.07-12.55,19.19-15.33,30.51-.72,2.94-1.15,6-1.59,9a10.22,10.22,0,0,1-4.78,7.64,8.7,8.7,0,0,0-2.84,3.52,24.8,24.8,0,0,1-5.77,7.81c-3.53,3.24-5.68,7.64-4.9,12.54.73,4.6-.51,8.6-2.14,12.64-3.07,7.59-6.2,15.16-9.32,22.73-1.13,2.73-2.65,5.09-5.72,6a2.69,2.69,0,0,0-1.37,1.27c-4.71,9-7.36,18.44-5.66,28.69.31,1.84,1.22,3.58,1.51,5.42.47,3,.66,6.07,1,9.29-9,.91-17.19,1.87-25.4-.06-1-.24-2.44-1.54-2.51-2.43-.32-4.13-.95-8.44-.13-12.41,2.15-10.44,5-20.73,7.53-31.09a3.37,3.37,0,0,0,.08-2.13c-3.25-5.85-2.06-11.53.5-17.17a23.1,23.1,0,0,1,2.22-3.83,16.2,16.2,0,0,0,3.13-8.63c.65-10.13,6.27-18,11.64-26.16,2.77-4.18,4.64-9,6.81-13.53a3.92,3.92,0,0,0,.09-2.43c-1.95-7.87.31-15.49,1.31-23.18.67-5.12,1.65-10.21,2.45-15.31.1-.61.2-1.49-.13-1.86-2.61-2.92-2-6.66-2.68-10.06a2.21,2.21,0,0,1,.08-1.21c.81-2,1.7-3.37-.29-5.77-2.39-2.88,1.8-9.44,6-9.86.33-12.43-3.94-24.59-2.63-37.41,1.12-1.69,5.61-3.09,8.51-4.82-3.58-.83-6.76-1.71-10-2.25-1.88-.31-2.63-1.29-2.52-2.94.18-2.86.56-5.7.83-8.55.77-8.25,1.63-16.5,2.2-24.76.15-2.13.9-2.94,2.81-3.1,2.45-.2,4.91-.36,7.36-.6,1.06-.1,2.1-.38,3.15-.52,1.85-.25,2.25-1.16,2-3-1.41-12.18-1.43-24.27,3.13-35.94,3.5-9,8.49-16.84,17.61-20.9a30.22,30.22,0,0,1,11-2.16c2.21-.08,4.49,1.44,7.36,2.46,1.47-.69,2-2,1-4.6-5.39-14.24,1.76-32,15.21-38.05,8.8-4,17.34-3.49,25.6,1.69,2.91,1.83,5,3.31,7.54,5,2.5.9,3.91,2.86,3.54,4.93-.14.79.43.9.73,1.7a34.82,34.82,0,0,1,2.52,16.15c-.44,4.24-2.53,6.91-6.75,7.54-2.64.39-3.41,1.66-3,4.14a34.44,34.44,0,0,1,.52,5.14c.06,2,1.07,2.62,2.83,2.26,2.48-.51,4.95-1.12,7.42-1.68a40.36,40.36,0,0,1,5.76-1.2c1.52-.11,1.89-.86,2.16-2.06.56-2.54,1.19-5.06,1.8-7.58.23,0,1.5,0,1.73,0-.09,1.57-.22,2.84-.23,4.27,0,1.92.74,2.89,2.59,3s2.76.92,2.46,3h79.55v3.54l2.64.31V97.87l2.35-.29c1.56,4.56-1.63,9.88,2.6,14l2-1.57c2,1.84.77,4.14.88,6.41,7.27,0,14.65,1,21.61-.32,5.47-1,10.52,1.27,16-.59l-.25,5.39c-4.39.24-9,1.64-12.76.45-7.29-2.29-14.44-1-21.66-1.1-1.12,0-2.24.57-3.38.6a42.38,42.38,0,0,1-8.67-.47c-.11.1-.31.19-.33.3-.65,4.11-.65,4.11-4.85,4.11-8.63,0-17.26,0-25.89,0a8.38,8.38,0,0,0-7.47,4.17,30.26,30.26,0,0,1-6.3,6.46c-1.51,1.23-2.35,2.43-2,4.32.84,4.51,1.72,9,2.58,13.52.2,1,.41,2.08.64,3.26a7.81,7.81,0,0,1-1.84.71c-3.61.38-5.14,2.48-5.55,6a74.84,74.84,0,0,1-1.78,9.17,12.25,12.25,0,0,1-5.31,7.44,50.88,50.88,0,0,0-4.95,4.05c-2.52,2.21-10.26,4-13.51,3-6.9-1.14-13.11-4.13-19.21-7.4-3.61-1.93-7.2-3.91-11-6l-2.09,8.64c7.06,3.17,8.78,5.88,8.38,14.16s-.71,16.43-1.83,24.54c-.54,3.91-2.72,7.64-4.49,11.3-.42.87-2.11,1.4-3.29,1.56a8,8,0,0,1-3.33-.69c-3.15-1-5.41.93-4.85,4.3.31,1.86.76,3.7,1.08,5.56a12.46,12.46,0,0,0,3.37,6.65c11.78,12.62,18.83,28,25,43.8.89,2.3,1.8,4.58,2.58,6.92s1.52,4.5,4.09,5.49c.45.17.73,1.15.83,1.8.38,2.48.26,5.05,2.12,7.17.49.55.37,1.71.4,2.59.34,12.37-1.45,24.56-3,36.78-.47,3.65.29,7.48.71,11.2.48,4.18.2,8.15-1.93,11.9a7,7,0,0,0-1,3.23c0,5.91-.07,11.83.39,17.71.16,2,1.52,4.14,2.81,5.86a65.6,65.6,0,0,0,7.41,8.56,31,31,0,0,0,6.88,4.47,59.06,59.06,0,0,0,7.46,3.17c3.05,1.11,4,3.35,3.85,6.33-.07,1.22-.23,2.44-.38,3.95-2.52.23-4.95.62-7.38.64-10,.07-20,.81-29.76-2.53-3.52-1.2-7.76-.14-11.65-.45a31.53,31.53,0,0,1-7.51-1.67c-.62-.21-1.26-1.93-1.06-2.77,1.53-6.61,3.51-13.13,4.81-19.78.65-3.32.28-6.86.19-10.3-.1-3.68-.4-7.36-.65-11,0-.46-.13-1.15-.44-1.32-2.26-1.28-2.23-3.41-2.26-5.55a4.69,4.69,0,0,0-.28-1.44c-3.39-9.69-3-19.91-4.18-29.91-.23-2,.73-4.37,1.83-6.14a9.77,9.77,0,0,0,1.77-5.15c0-2,.6-4.08.58-6.12a11.77,11.77,0,0,0-1-4.63c-1.13-2.48-2.68-3.89-6-3.13-3.75.86-7-.79-9.26-4.18-5.47-8.2-11-16.32-16.51-24.53-.91-1.37-1.9-2.18-3.58-2-3.84.47-6.18-1.45-7.73-4.74C209.59,282,208.68,280.36,207.77,278.59Zm85.05-127.8a71.78,71.78,0,0,0,4.92-5.47c2.17-3,4.59-5.89,5.9-9.23.7-1.79-.18-4.76-1.39-6.46-.52-.74-3.81.08-5.6.79s-2.19,2.37-.69,4.17c-2.32,1.29-4.41,2.39-6.43,3.6-1.3.78-2.54,1.7-1.57,3.53C289.49,144.58,291,147.45,292.82,150.78Z"/></svg>