<svg id="Слой_1" data-name="Слой 1" xmlns="http://www.w3.org/2000/svg" viewBox="0 0 500 500"><defs><style>.cls-1{fill:#fff;}</style></defs><title>icons</title><path class="cls-1" d="M101,316.35c4.44,4.32,8.78,8.56,13.16,12.76A3,3,0,0,0,116,330c10.48.05,21,0,31.44,0,.19,0,.37,0,.81-.06L64.77,219.42H66.5q40.15,0,80.29,0a2.77,2.77,0,0,1,2.51,1.25q36.6,48.23,73.27,96.4c7.07,9.29,10.43,19.68,9.26,31.33-1.8,17.85-14.49,33.06-33.11,36.15a48.42,48.42,0,0,1-7.84.65q-71.74.06-143.47,0H45.47Z"/><path class="cls-1" d="M432.93,347.13c-4.33,3-7.62,5.67-12,8.62-6.94,4.69-14.73,10-22,14.25a111.17,111.17,0,0,1-45.5,14.77c-19.59,1.92-37.86-2-54.49-12.64-11.28-7.19-20.4-16.57-28.25-27.22-7.53-10.2-13.54-21.12-16.8-33.4a118.11,118.11,0,0,1-3.73-35.05A159.07,159.07,0,0,1,259.07,230c1-2.85,2.16-5.64,3.32-8.43a1.66,1.66,0,0,1,1.2-.87q33.13-.05,66.25,0a1.76,1.76,0,0,1,.33.14c-.42,2.22-.8,4.51-1.27,6.77a183.32,183.32,0,0,0-3.48,42.64,129.85,129.85,0,0,0,5.3,34.86c2.93,9.54,7.25,18.39,13.9,26,7.84,9,17.8,14.42,29.41,17.11a86.12,86.12,0,0,0,24,2c6.17-.32,13.23-1,19.39-1.64,5.47-.55,10-1.24,15.48-1.78Z"/><path class="cls-1" d="M204.74,222.76c-1.49-1.52-2.88-2.94-4.28-4.36-2.81-2.84-5.66-5.65-8.43-8.53a3.37,3.37,0,0,0-2.68-1.1q-61.27,0-122.54,0h-2c0-.55-.09-1-.09-1.39,0-6.43-.19-12.88.11-19.3a35.54,35.54,0,0,1,12.55-25.78c7.25-6.39,15.8-9.26,25.46-9.23,21.3.07,42.6,0,63.9,0h93.68Z"/><path class="cls-1" d="M455.47,153.1,399.52,223c-.87-1.08-1.59-2.12-2.46-3-3.33-3.42-6.74-6.77-10.06-10.2a3.21,3.21,0,0,0-2.55-1.06q-59.07,0-118.14,0h-2.06c1.36-3.19,2.66-6.21,3.93-9.24a141,141,0,0,1,15.16-28c4.26-5.93,9-11.38,15.41-15.15a22.69,22.69,0,0,1,11.79-3.26q71.57,0,143.15,0Z"/></svg>