<svg viewBox="0 0 35 35" fill="none" xmlns="http://www.w3.org/2000/svg">
    <path fill-rule="evenodd" clip-rule="evenodd" d="M4.41344 9.28906C4.61114 8.36085 5.43094 7.69727 6.37997 7.69727H32.7907C33.6762 7.69727 34.3366 8.51316 34.1522 9.37922L32.7108 16.1468C33.3508 16.4718 33.7192 17.1968 33.5628 17.9323L31.9351 25.59C31.7486 26.4673 30.8863 27.0274 30.009 26.8409L29.994 26.8377C29.6424 27.1306 29.1916 27.3036 28.707 27.3036H2.29621C1.41072 27.3036 0.750306 26.4877 0.934769 25.6216L1.94723 20.8681C1.16088 20.6181 0.677441 19.8073 0.852594 18.9832L2.4803 11.3255C2.65578 10.4999 3.42977 9.95532 4.25151 10.0493L4.41344 9.28906ZM4.15421 10.5062C3.58427 10.4634 3.05628 10.8474 2.93416 11.4219L1.30645 19.0797C1.17325 19.7064 1.57327 20.3223 2.19991 20.4555L5.55062 21.1677C6.17726 21.3009 6.79324 20.9009 6.92643 20.2743L6.93898 20.2153L11.5124 21.0711L11.5124 21.0713L11.5125 21.0713L11.6214 21.4486C11.6344 21.4936 11.6513 21.5369 11.6717 21.5779C11.6792 21.5931 11.6872 21.6079 11.6957 21.6225C11.804 21.8088 11.9871 21.9443 12.2035 21.9903L15.2005 22.6273L17.3454 23.0833L20.3423 23.7203C20.6215 23.7796 20.9107 23.6804 21.0946 23.462L21.3503 23.1585L25.8746 24.2363L25.8746 24.2365L25.8747 24.2365L25.8614 24.2992C25.8073 24.5538 25.8412 24.8066 25.9425 25.026C25.9633 25.0709 25.9869 25.1145 26.0131 25.1564C26.1741 25.4131 26.4349 25.6068 26.7547 25.6748L30.1055 26.387C30.7321 26.5202 31.3481 26.1202 31.4813 25.4936L33.109 17.8358C33.2114 17.3537 32.9983 16.8779 32.6092 16.6235L32.6092 16.6236C32.4926 16.5473 32.3601 16.4909 32.2156 16.4602L28.8649 15.748C28.2383 15.6148 27.6223 16.0148 27.4891 16.6414L27.206 17.9733L23.9784 17.1527L23.9784 17.1525L23.9783 17.1524L24.0639 16.7495L24.1604 16.2956L24.6143 16.3921L25.0997 16.4953C25.1624 16.5086 25.224 16.4686 25.2373 16.4059L25.3891 15.692C25.395 15.6641 25.3904 15.6365 25.3779 15.6132C25.3623 15.5842 25.3346 15.562 25.2998 15.5546L23.2435 15.1175C23.1808 15.1042 23.1192 15.1442 23.1059 15.2069L22.9541 15.9208C22.9482 15.9485 22.9528 15.976 22.965 15.9992C22.9806 16.0284 23.0085 16.0508 23.0434 16.0582L23.0746 16.0648L23.5284 16.1613L23.5284 16.1615L23.5285 16.1615L23.3517 16.9933L22.8821 16.8739C22.3237 16.7319 21.8531 16.376 21.5627 15.8956C21.515 15.8168 21.4722 15.7346 21.4347 15.6495C21.3959 15.5616 21.3627 15.4705 21.3356 15.3767L20.9498 14.0429L20.8036 13.5375L21.3183 13.6469L26.2609 14.6975L26.4829 14.7447L26.7147 14.794L26.7147 14.7941L26.7148 14.7942L26.3254 16.6266C26.3196 16.6537 26.3241 16.6807 26.3361 16.7034C26.3514 16.7319 26.3786 16.7537 26.4127 16.7609C26.474 16.774 26.5342 16.7348 26.5473 16.6735L26.6162 16.3491L26.9368 14.8411L27.0332 14.3873L27.1286 13.9386L27.2251 13.4847L27.3544 12.8761L27.4234 12.5516C27.4292 12.5245 27.4247 12.4976 27.4126 12.4749C27.3974 12.4464 27.3702 12.4245 27.3361 12.4173C27.2748 12.4042 27.2145 12.4434 27.2015 12.5047L27.0032 13.4378L20.372 12.0283L20.372 12.0281L20.3719 12.0281L20.2498 11.576C20.2181 11.4588 20.1746 11.3467 20.1207 11.2411C20.1064 11.213 20.0913 11.1854 20.0755 11.1582C19.8338 10.7428 19.4253 10.4402 18.9418 10.3375C18.3079 10.2027 17.6518 10.4342 17.2429 10.9371L16.9475 11.3004L10.3166 9.89091L10.3166 9.89073L10.3165 9.8907L10.4129 9.43685L10.4458 9.28209L10.5148 8.95761C10.5206 8.93048 10.5161 8.90356 10.5041 8.88084C10.4888 8.85232 10.4616 8.83047 10.4275 8.82322C10.3662 8.81019 10.3059 8.84932 10.2929 8.91063L9.41677 13.0325C9.411 13.0596 9.41545 13.0866 9.42751 13.1093C9.44273 13.1378 9.46997 13.1597 9.50407 13.1669C9.56537 13.1799 9.62564 13.1408 9.63867 13.0795L9.70764 12.755L9.93169 11.701L10.0282 11.2471L10.26 11.2964L10.482 11.3436L15.4091 12.3909L15.9238 12.5003L15.9236 12.5004L15.9239 12.5005L14.6899 13.9643C14.1947 14.5517 13.4254 14.8328 12.6682 14.7029L12.2063 14.6236L12.2064 14.6235L12.2062 14.6234L12.2864 14.2461L12.3028 14.1692L12.3829 13.7923L12.8368 13.8887L12.868 13.8954C12.9306 13.9087 12.9922 13.8687 13.0055 13.806L13.1573 13.092C13.1632 13.0643 13.1586 13.0367 13.1463 13.0135C13.1307 12.9844 13.1029 12.9621 13.0681 12.9547L11.0117 12.5176C10.949 12.5043 10.8874 12.5443 10.8741 12.6069L10.7224 13.3209C10.7165 13.3486 10.721 13.376 10.7333 13.3992C10.7488 13.4285 10.7767 13.4508 10.8116 13.4583L11.2971 13.5614L11.7509 13.6579L11.7509 13.6581L11.751 13.6581L11.569 14.5143L8.27115 13.9486L8.27119 13.9484L8.27104 13.9484L8.36758 13.4942L8.55414 12.6165C8.6124 12.3424 8.56866 12.0704 8.44857 11.8399C8.44368 11.8305 8.43867 11.8212 8.43354 11.812C8.27623 11.5293 8.00213 11.3135 7.66079 11.2409L4.31008 10.5287C4.25795 10.5176 4.20588 10.5102 4.15417 10.5063L4.15421 10.5062ZM17.7201 11.4646L19.5994 11.864L19.5836 11.7285C19.5701 11.6125 19.5362 11.5025 19.4854 11.4025C19.4782 11.3883 19.4707 11.3743 19.4628 11.3605C19.3288 11.1258 19.0993 10.9521 18.8234 10.8935C18.5476 10.8348 18.2672 10.9002 18.0494 11.06C17.9464 11.1356 17.8574 11.2323 17.7895 11.347L17.72 11.4644L17.7202 11.4644L17.7201 11.4646ZM26.0979 23.1866L25.9792 23.745L21.7127 22.7285L21.7128 22.7284L21.7126 22.7283L21.8564 22.5575L24.8786 23.0056L25.6379 23.1182L26.0978 23.1864L26.0977 23.1866L26.0979 23.1866ZM7.04358 19.7239L11.3565 20.531L11.2934 20.3124L11.2933 20.3124L11.2933 20.3122L8.39175 19.504L7.61077 19.2864L7.16293 19.1616L7.13996 19.2697L7.06627 19.6164L7.04346 19.7237L7.04361 19.7237L7.04358 19.7239Z" fill="white"/>
</svg>
