<svg id="Слой_1" data-name="Слой 1" xmlns="http://www.w3.org/2000/svg" viewBox="0 0 35 35"><defs><style>.cls-1{fill:#fff;}</style></defs><title>icons</title><path class="cls-1" d="M22.49,15.83c7.29.1,9.87-1,9.39-2.15s-5.49.68-13.18-1.33a11.63,11.63,0,0,1-7.74-7H11a2.65,2.65,0,1,0-2.43-3.7,2.54,2.54,0,0,0-.22,1.05,2.56,2.56,0,0,0,0,.28,6.44,6.44,0,0,0,.17,2.2,14.71,14.71,0,0,0,6.65,9.23c1.13.6,1.26,1.86,1,3.33C14.73,28.89,2.8,32.53,3.07,34.37c.13.92,2.89-.24,3.58-.53a25.63,25.63,0,0,0,8.85-6c2.72,1.29,7.58,2.32,8.52,0,1.44-3.55-3.39-7.4-3.35-7.52a19.44,19.44,0,0,0,1-3.82A.83.83,0,0,1,22.49,15.83ZM9.69,2A1.53,1.53,0,1,1,11,4.26a1.44,1.44,0,0,1-.46-.07A1.53,1.53,0,0,1,9.51,2.73,1.47,1.47,0,0,1,9.69,2ZM17.16,26c1-1.29,1.53-2.24,1.74-2.47C19.33,23,24,28.52,17.16,26Z"/><path class="cls-1" d="M20.41,11.61a2.73,2.73,0,1,0-2.74-2.76A2.72,2.72,0,0,0,20.41,11.61Z"/></svg>