<svg viewBox="0 0 500 500" xmlns="http://www.w3.org/2000/svg"><defs><style>.cls-1{fill:#fff;}</style></defs><path class="cls-1" d="M355.967 344.054C331.156 371.545 295.628 389.158 255.979 390.288V338.969C303.226 336.838 340.879 297.818 340.879 249.992C340.879 202.17 303.226 163.146 255.979 161.018V80C259.704 91.1686 271.454 103.558 282.092 109.844C287.672 113.141 296.319 116.663 302.465 119.043C327.287 128.652 348.694 145.132 364.358 166.152C361.809 167.544 359.041 169.39 355.77 170.062C356.522 171.153 363.538 177.098 367.932 178.622C368.976 177.701 369.614 177.143 370.223 176.497C370.446 176.261 370.666 176.013 370.899 175.732C384.341 197.271 392.109 222.724 392.109 249.992C392.109 275.293 385.422 299.032 373.72 319.531C372.324 318.673 371.053 318.004 369.857 317.378C368.697 316.768 367.606 316.196 366.537 315.521C365.301 319.531 355.967 333.787 351.819 337.975C353.781 340.054 354.762 341.962 355.967 344.054ZM266.464 109.337V123.153C278.333 122.575 287.881 123.809 298.189 127.674C292.926 124.832 288.625 122.688 284.957 120.861C276.904 116.844 271.901 114.352 266.464 109.337ZM269.225 147.735C278.137 146.789 285.699 149.491 293.937 155.171C292.586 138.813 281.378 132.323 269.225 147.735ZM266.464 145.707V127.674C310.041 127.093 342.352 153.672 363.815 193.432L346.282 201.627C331.294 182.199 321.921 171.68 299.673 157.131L297.569 150.134C313.491 157.673 323.737 165.739 337.817 178.622C334.722 166.639 331.479 161.638 323.373 155.171L324.049 162.335C313.107 152.626 306.432 148.655 293.937 143.272C290.385 132.995 272.513 130.725 266.464 145.707ZM350.98 211.039L367.433 203.3C372.257 214.852 372.683 221.704 373.232 230.532L373.38 232.866L365.789 228.749C366.76 244.932 365.473 252.879 361.884 266.291L371.709 255.177C363.821 275.17 357.63 283.695 344.24 295.238C354.945 277.121 360.878 249.295 350.98 211.039ZM333.302 328.075C326.068 327.048 321.784 326.254 316.723 325.443L330.847 317.84L327.712 311.424C348.505 299.303 354.689 291.382 365.67 277.318L365.789 277.166L370.968 280.566C369.703 294.25 355.482 327.135 335.362 334.274C346.342 323.174 357.017 309.076 359.07 296.41C351.887 310.542 346.381 317.865 333.302 328.075ZM367.433 273.256L372.431 260.14V276.045L367.433 273.256ZM368.25 236.005V249.992L377.309 251.49L378.145 240.609L368.25 236.005ZM287.312 345.152C280.702 347.219 276.674 348.174 268.767 349.214V354.29L263.697 355.162V362.559C281.817 358.788 288.12 355.362 287.312 345.152ZM289.195 356.466C292.182 351.197 292.992 347.971 292.672 341.962L307.885 334.274C301.966 346.424 297.866 351.261 289.195 356.466ZM265.435 367.053V380.831C276.012 379.614 280.678 378.732 285.863 375.61C297.114 359.162 307.253 350.173 328.457 334.274L316.723 333.115C311.52 341.594 306.261 346.46 301.594 350.777C299.991 352.262 298.456 353.683 297.018 355.162C291.401 360.941 278.99 365.923 265.435 367.053ZM332.514 338.83C312.594 349.899 300.534 364.025 302.379 367.053C306.583 374.125 333.995 347.832 332.514 338.83ZM338.165 346.169L341.642 336.886L349.03 335.582L338.165 346.169ZM144.033 155.946C168.844 128.455 204.372 110.842 244.021 109.712V161.031C196.774 163.162 159.121 202.183 159.121 250.008C159.121 297.83 196.774 336.851 244.021 338.982V420C240.296 408.831 228.546 396.442 217.908 390.156C212.328 386.859 203.681 383.337 197.535 380.957C172.713 371.348 151.306 354.868 135.642 333.848C137.202 332.996 138.846 331.972 140.636 331.155C141.77 330.635 142.962 330.2 144.23 329.938C143.478 328.847 136.462 322.902 132.068 321.378C131.021 322.302 130.38 322.864 129.77 323.509C129.549 323.745 129.332 323.99 129.101 324.268C115.659 302.729 107.891 277.276 107.891 250.008C107.891 224.707 114.578 200.968 126.28 180.469C129.032 182.16 131.293 183.107 133.463 184.479C134.699 180.469 144.033 166.213 148.181 162.025C146.451 160.191 145.483 158.493 144.454 156.682L144.033 155.946ZM233.536 390.663V376.847C221.667 377.425 212.119 376.191 201.811 372.326C207.074 375.168 211.375 377.312 215.043 379.139C223.096 383.156 228.099 385.648 233.536 390.663ZM230.775 352.265C221.863 353.211 214.301 350.509 206.063 344.829C207.414 361.187 218.622 367.677 230.775 352.265ZM233.536 354.293V372.326C189.959 372.907 157.648 346.328 136.185 306.568L153.718 298.373C168.706 317.801 178.079 328.32 200.327 342.869L202.431 349.866C186.509 342.327 176.263 334.261 162.183 321.378C165.278 333.361 168.521 338.362 176.626 344.829L175.951 337.665C186.893 347.374 193.568 351.345 206.063 356.728C209.615 367.005 227.487 369.275 233.536 354.293ZM149.02 288.961L132.567 296.7C127.743 285.148 127.317 278.296 126.768 269.468L126.62 267.134L134.211 271.251C133.24 255.068 134.527 247.122 138.116 233.709L128.291 244.823C136.179 224.83 142.37 216.305 155.76 204.762C145.055 222.879 139.122 250.705 149.02 288.961ZM166.698 171.925C173.932 172.952 178.216 173.746 183.277 174.557L169.153 182.16L172.288 188.576C151.495 200.697 145.311 208.618 134.33 222.682L134.211 222.834L129.032 219.434C130.297 205.75 144.518 172.865 164.638 165.726C153.658 176.826 142.983 190.924 140.93 203.59C148.113 189.458 153.619 182.135 166.698 171.925ZM132.567 226.744L127.569 239.86V223.955L132.567 226.744ZM131.75 263.995V250.008L122.691 248.51L121.855 259.391L131.75 263.995ZM212.688 154.848C219.298 152.781 223.326 151.826 231.233 150.786V145.71L236.303 144.838V137.441C218.182 141.212 211.88 144.638 212.688 154.848ZM210.805 143.534C207.818 148.803 207.008 152.029 207.328 158.038L192.115 165.726C198.034 153.576 202.134 148.739 210.805 143.534ZM234.565 132.947V119.169C223.988 120.386 219.322 121.268 214.137 124.39C202.886 140.838 192.747 149.827 171.543 165.726L183.277 166.885C188.48 158.406 193.739 153.54 198.406 149.223C200.009 147.738 201.544 146.317 202.981 144.838C208.599 139.059 221.01 134.077 234.565 132.947ZM167.486 161.17C187.406 150.101 199.466 135.975 197.621 132.947C193.417 125.875 166.005 152.168 167.486 161.17ZM161.835 153.831L158.358 163.114L150.97 164.418L161.835 153.831Z"/></svg>