<svg id="Слой_1" data-name="Слой 1" xmlns="http://www.w3.org/2000/svg" viewBox="0 0 35 35"><defs><style>.cls-1{fill:#fff;}</style></defs><title>icons</title><path class="cls-1" d="M31.7,18c-.42-.2-.94-.49-1.48-.79s-1.07-.59-1.55-.84L22,20.78a.64.64,0,0,1-.38.11c-.2,0-.41,0-.51-.23a.56.56,0,0,1,.27-.78l6.55-4.38c-.16-1.48-.35-2.69-.36-2.74a.6.6,0,0,0-.5-.49l-2.8-.45-5.36,5.57a.72.72,0,0,1-.49.27.65.65,0,0,1-.42-.18.56.56,0,0,1,0-.84l5.32-5.58L22.58,8.4c0-.45-.53-.52-.7-.55-.36-.05-1.25-.24-2.54-.44l-4,6.64a.65.65,0,0,1-.58.31.52.52,0,0,1-.29,0,.53.53,0,0,1-.19-.79l4.15-6.9C18.16,6,17.89,5.42,17.7,5a10.42,10.42,0,0,1-.5-1.12,1,1,0,0,0-.89-.65h0a1,1,0,0,0-.94.58L10.56,14.4,7.28,21.93A1.85,1.85,0,0,0,7.68,24l3.08,3h0l0,0,1.08,1.06.19.15.09.09a1.45,1.45,0,0,0,.93.32h.1a2,2,0,0,0,1-.21l1.54-.76,14.76-7.26v0l1.29-.64a1,1,0,0,0,0-1.8ZM13.85,27.34a1.4,1.4,0,0,1-.47.17.88.88,0,0,1-.53-.09L12,26.64l3-2.32,1.64,1.61L14.44,27ZM10,24.63l2.38-3,1.9,1.9-3,2.33Zm11.08-.89-3.35,1.65L15.9,23.64l2.8-2.18Zm-3.15-3-2.8,2.18L13,20.77,15.17,18ZM11.6,14.82l.1-.22,2.72,2.66-2.17,2.83L10.2,18ZM8.3,22.29l1.46-3.18L11.63,21l-2.37,3-.81-.83A.83.83,0,0,1,8.3,22.29Z"/><path class="cls-1" d="M6.3,24.18a.24.24,0,0,0-.35,0c-1.35,1.54-2.26,3.73-.47,5.67s4.49,1.21,6-.15a.24.24,0,0,0,0-.35Z"/></svg>