<svg id="Слой_1" data-name="Слой 1" xmlns="http://www.w3.org/2000/svg" viewBox="0 0 35 35"><defs><style>.cls-1{fill:#fff;}.cls-2{fill:#fbfcfc;}</style></defs><title>icons</title><path class="cls-1" d="M27.74,2.51c-.32-.18-.61-.35-1,0-2,1.77-4.52,2.48-6.94,3.31C12.92,8.17,8,12.55,5.3,19.41,4.25,22,3.4,24.83,1.37,27c-.31.32-.07.55.08.84a18.49,18.49,0,0,0,5.63,6,1.19,1.19,0,0,0,.83.27c.29,0,.5-.21.78-.39a17.63,17.63,0,0,1,2.67-1.54c2.84-1.24,5.86-2.06,8.58-3.58A21.21,21.21,0,0,0,29,18.85c1.45-3.07,2.16-6.5,4.51-9.12a1.05,1.05,0,0,0,0-1.34A17.34,17.34,0,0,0,27.74,2.51ZM8,30.06A2.16,2.16,0,1,1,8.11,27,2.16,2.16,0,0,1,8,30.06ZM26.23,18.35a9.17,9.17,0,0,1-9,8.56A8.72,8.72,0,0,1,8.71,18a8.88,8.88,0,0,1,8.88-8.58A8.53,8.53,0,0,1,26.23,18.35Zm3.69-8.52A2.16,2.16,0,1,1,30,6.77,2.16,2.16,0,0,1,29.91,9.83Z"/><polygon class="cls-2" points="12.91 13.49 17.27 15 20.99 12.26 20.9 16.88 24.66 19.57 20.24 20.91 18.84 25.31 16.2 21.52 11.58 21.55 14.36 17.87 12.91 13.49"/></svg>