<svg viewBox="0 0 500 500" xmlns="http://www.w3.org/2000/svg"><defs><style>.cls-1{fill:#fff;}</style></defs><path class="cls-1" d="M119.61 353.74V272.913V270.086H157.104V229.142H119.61V196.023C119.61 196.023 119.962 185.59 127.284 185.59H171.574V143.858H115.078C108.099 143.858 87 153.517 87 185.858V353.74H119.61Z"/><path class="cls-1" d="M260.895 353.739V272.912V270.085H298.389V229.141H260.895V196.022C260.895 196.022 261.247 185.589 268.569 185.589H312.86V143.857H256.363C249.384 143.857 228.285 153.516 228.285 185.857V353.739H260.895Z"/><path class="cls-1" d="M180.824 143.862H214.376V355.857H180.824V143.862Z"/><path class="cls-1" d="M407.172 160.506C400.398 148.168 389.56 143.861 384.922 143.861H350.676C346.038 143.861 335.203 148.168 328.426 160.506C325.004 166.748 322.598 174.998 322.598 185.858V353.74H355.208V272.916V270.086V229.142V196.023C355.208 196.023 355.557 185.59 362.881 185.59H372.717C380.038 185.59 380.393 196.023 380.393 196.023V229.142V239.798H362.016V281.797H380.393V353.74H413V185.858C413 174.998 410.594 166.748 407.172 160.506Z"/></svg>
