<svg id="Слой_1" data-name="Слой 1" xmlns="http://www.w3.org/2000/svg" viewBox="0 0 500 500"><defs><style>.cls-1{fill:#fff;}</style></defs><title>icons</title><path class="cls-1" d="M229,373.53c-1,0-1.37-.17-1.34-1.29.08-3.24,0-6.49,0-9.73,0-.4.07-.79.1-1.19V235.07c0-34.11.05-135.81.05-143,0-3.16,0-5.33,0-8.49A2,2,0,0,0,226,81.52c-5.1,0-94,0-94,0-1.65,0-.79,1.05-.47,1.45q11.29,15.07,22.59,30.12a3.08,3.08,0,0,1,.66,2q0,11.54,0,23.1c0,1.46,0,2.91-.07,4.37,0,5.46,0,10.94,0,16.4,0,1.44,0,2.88.05,4.32,0,.58,0,1.14,0,1.7V371.21c0,.56,0,1.13,0,1.7,0,5.33,0,10.67,0,16,0,1.51-1.17,2.28-2,3.31a8.75,8.75,0,0,1-.56.93q-10.35,13.8-20.7,27.59c-.31.41-.6.83-1,1.41h76.9q70.32,0,140.67,0a2.4,2.4,0,0,0,2.13-1c1.67-2.13,3.46-4.19,5.2-6.27l20.88-25.12L385.38,379c1.49-1.77,3-3.57,4.6-5.53C390,373.5,263.17,373.5,229,373.53Z"/><path class="cls-1" d="M137.81,197.9a129.29,129.29,0,0,0,0,146.08v32.19l-1.72-1.84a149.77,149.77,0,0,1,0-207l1.72-1.84Z"/><path class="cls-1" d="M395.57,270.87c0,32.19-9.21,61.55-27.77,86.86H342.49c21.62-24.94,32.56-54.18,32.56-86.86,0-71.26-57.26-128.9-130-129.34V121C330.08,121.25,395.57,188.32,395.57,270.87Z"/></svg>