<svg id="Слой_1" data-name="Слой 1" xmlns="http://www.w3.org/2000/svg" viewBox="0 0 35 35"><defs><style>.cls-1{fill:#fff;}</style></defs><title>icons</title><circle class="cls-1" cx="17.5" cy="11.99" r="9.88"/><path class="cls-1" d="M20.54,22.77a28.09,28.09,0,0,1-3,.21h0a26.4,26.4,0,0,1-2.94-.2c-.45-.11-.69.21-.64.65a3.79,3.79,0,0,0,1.06,2,4.07,4.07,0,0,0,1.08.77l.48,5.68a.22.22,0,0,0,.22.2h1.51a.29.29,0,0,0,.29-.27L19,26.2a4.07,4.07,0,0,0,1.08-.77,3.79,3.79,0,0,0,1.06-2C21.23,23,21,22.66,20.54,22.77Z"/></svg>