<svg id="Слой_1" data-name="Слой 1" xmlns="http://www.w3.org/2000/svg" viewBox="0 0 35 35"><defs><style>.cls-1{fill:none;}.cls-2{fill:#fff;}</style></defs><title>icons</title><path class="cls-1" d="M28,6.8a15.18,15.18,0,0,1-4.85,24.7A15.11,15.11,0,0,0,28,6.8Z"/><path class="cls-1" d="M25.14,18.36l-.18-.1-.17-.09h0l0,0a13.47,13.47,0,0,0-7.25-1.5.5.5,0,0,1-.42-.15A8.55,8.55,0,0,1,14.82,11c0-.11,0-.21,0-.29a.49.49,0,0,1,.42-.49,20.24,20.24,0,0,1,9.7,1.05,14.14,14.14,0,0,1,5.77,3.86A.18.18,0,0,0,31,15,14.18,14.18,0,0,0,17.2,3.44l-.88,0a.18.18,0,0,0-.12.06c-1,1.1-2.63,3.5-2.46,7.68a9.16,9.16,0,0,0,2.53,6,.3.3,0,0,1,.07.29,8.59,8.59,0,0,1-3.9,5l-.44.23a.3.3,0,0,1-.35-.06,17,17,0,0,1-4.1-10.38,13.85,13.85,0,0,1,.72-5.13A.18.18,0,0,0,8,6.88,14,14,0,0,0,5,24.43c.74.07,1.48.1,2.19.1A11.49,11.49,0,0,0,13,23.32,9.51,9.51,0,0,0,17.29,18a.39.39,0,0,1,.34-.28,12.29,12.29,0,0,1,6.12,1.12.39.39,0,0,1,.21.46,14.39,14.39,0,0,1-6.21,8.46A16.33,16.33,0,0,1,11.83,30a.24.24,0,0,0-.05.46,14.05,14.05,0,0,0,18-6.7A11.33,11.33,0,0,0,25.14,18.36Z"/><path class="cls-2" d="M32.39,17.28a15.08,15.08,0,1,0-9.28,14.21A15.16,15.16,0,0,0,32.39,17.28ZM17.18,31.55a14.08,14.08,0,0,1-5.43-1.09A.24.24,0,0,1,11.8,30a16.33,16.33,0,0,0,5.92-2.27,14.39,14.39,0,0,0,6.21-8.46.39.39,0,0,0-.21-.46A12.29,12.29,0,0,0,17.6,17.7a.39.39,0,0,0-.34.28A9.51,9.51,0,0,1,13,23.31a11.49,11.49,0,0,1-5.84,1.22c-.71,0-1.44,0-2.19-.1A14,14,0,0,1,8,6.87a.18.18,0,0,1,.29.2,13.85,13.85,0,0,0-.72,5.13,17,17,0,0,0,4.1,10.38.3.3,0,0,0,.35.06l.44-.23a8.59,8.59,0,0,0,3.9-5,.3.3,0,0,0-.07-.29,9.16,9.16,0,0,1-2.53-6C13.55,7,15.15,4.62,16.18,3.52a.18.18,0,0,1,.12-.06c.3,0,.59,0,.88,0A14,14,0,0,1,31,15a.18.18,0,0,1-.32.15,14.14,14.14,0,0,0-5.77-3.86,20.24,20.24,0,0,0-9.7-1.05.49.49,0,0,0-.42.49c0,.08,0,.18,0,.29a8.55,8.55,0,0,0,2.26,5.52.5.5,0,0,0,.42.15,13.47,13.47,0,0,1,7.25,1.5l0,0h0l.17.09.18.1a11.33,11.33,0,0,1,4.65,5.41A14,14,0,0,1,17.18,31.55Z"/></svg>