<svg id="Слой_1" data-name="Слой 1" xmlns="http://www.w3.org/2000/svg" viewBox="0 0 500 500"><defs><style>.cls-1{fill:#fff;}</style></defs><title>icons</title><path class="cls-1" d="M92.73,144.39c22-10.73,47.76-11.07,71.35-6.23,17.87,4.29,36.84,14.41,43.59,32.59,6.75,20.95,5.29,43.29,5.32,65-21.43-.09-42.86,0-64.26,0-.45-18,.12-36.51-.19-54,.4-12.4-22.28-12.34-22,.07-.2,33-.57,115.29-.43,138.42,1.76,7.17,21.53,8.73,22-4.66.44-15.13.44-29.89.63-43.33,21.46-.06,42.89,0,64.35,0-.64,20.4,1.19,42.1-7.39,61.16-14.23,23.56-43.9,32.41-70,31.59-23-.21-49.43-5.53-63.75-25.39-10.24-16.05-9.88-36.05-10.7-54.41.15-32.56-1.09-65.18,1.16-97.68C63.31,168.74,76.14,152.23,92.73,144.39Z"/><path class="cls-1" d="M458.84,182.7c-.12-13.89-7.44-27.48-19.39-34.65-13.26-7.51-29.27-10-44.14-11.07-28.24-1.24-65.36-.53-77.48-.26,0,73.75.61,147.82.64,221.56,26.61.49,53.62.84,83,.07,16.45-.43,34.86-1.25,47.69-13,11.52-12.67,9.85-31.16,10.61-47.06C459.66,259.8,460.79,221.19,458.84,182.7ZM402.59,308.8c-.27,11-16.42,13.13-25.17,11.39,0-48.57,0-95.83-.08-144.41,20.25-.48,24.67,5.23,24.93,16.82C402.93,221.86,402.71,282.23,402.59,308.8Z"/><path class="cls-1" d="M240.47,217.6c10.67-4.7,26.66-.14,28.42,12.72.5,16.93.38,29-.12,46.79C265.54,295,235.68,295.81,231,278.5c-.83-14.71-.09-31.6-.15-45.62-.35-7.59,2.28-12.31,9.64-15.28m7.18,12.09c-.85,18.23-.21,30.86-.23,48a2.54,2.54,0,0,0,2,1.21,2,2,0,0,0,1.81-1.29c.38-15.74.35-30.87.59-47.76a2,2,0,0,0-2.18-1.61C248.44,228.21,247.69,228.87,247.66,229.69Zm27.55-12.23c9.2,0,18.38-.06,27.55,0,0,4.76-.06,9.55-.06,14.34l-11.16.09c0,4.59,0,9.17,0,13.76,3.32,0,6.66.06,10,.12,0,4.39,0,8.77,0,13.16l-10,.09c0,10.18,0,20.34,0,30.53-5.45,0-10.88,0-16.3.06q0-36.09,0-72.13Z"/></svg>