<svg id="Слой_1" data-name="Слой 1" xmlns="http://www.w3.org/2000/svg" viewBox="0 0 35 35"><defs><style>.cls-1{fill:#fff;}</style></defs><title>icons</title><rect class="cls-1" x="3.8" y="23.45" width="0.18" height="0.8" rx="0.09" ry="0.09"/><path class="cls-1" d="M28.46,14.88l-2.8-4.49a4.29,4.29,0,0,0-3.58-2h0L13,8.37a4.27,4.27,0,0,0-3.55,2L6.47,14.91c.44.05,1,.08,1.26.14l2.45-3.83a4,4,0,0,1,3.13-1.79l8.19,0a3.52,3.52,0,0,1,3.4,1.72L27.24,15A11.27,11.27,0,0,1,28.46,14.88Z"/><path class="cls-1" d="M3.72,15.77a3.77,3.77,0,0,0-.6-.86c-.47-.28-1.61.2-2.06-.13a.94.94,0,0,1-.14-.89c.28-.61,1.91-1.09,1.91-1.09a.73.73,0,0,1,1,.64l.13.71a.83.83,0,0,0,.17.37s.77.67.56.71A2.84,2.84,0,0,0,3.72,15.77Z"/><path class="cls-1" d="M31.22,15.68a3.77,3.77,0,0,1,.6-.86c.47-.28,1.61.2,2.06-.13A.94.94,0,0,0,34,13.8c-.28-.61-1.91-1.09-1.91-1.09a.73.73,0,0,0-1,.64l-.13.71a.83.83,0,0,1-.17.37s-.77.67-.56.71A2.84,2.84,0,0,1,31.22,15.68Z"/><path class="cls-1" d="M28.92,16a9,9,0,0,0-3.33.54l-.94.35a.81.81,0,0,1-.28.05H10.27a.79.79,0,0,1-.45-.13A3.2,3.2,0,0,0,9,16.41H9A8.65,8.65,0,0,0,6.12,16c-2.14.1-3.31,2.22-3.31,4.7l0,5c0,1.38,1.6,1.71,1.6,1.71a7.06,7.06,0,0,0,1.86.26l6.44,0H22.3l6.44,0a7.06,7.06,0,0,0,1.86-.26s1.6-.34,1.6-1.71l0-5C32.22,18.24,31.06,16.12,28.92,16Zm-1.78,5.45a1.51,1.51,0,0,1,0,.24l-.11-.35ZM4,19.79A3.51,3.51,0,0,1,5,19.58a2.44,2.44,0,0,1,1.1.16,18.14,18.14,0,0,1,.47,3c-.06.32-1.1.32-1.2.17A15.46,15.46,0,0,1,4,19.79Zm9.88,7c-.72.1-7.94.06-7.94.06-.19,0-.26-.11-.24-.38l.07-1.16c.14-.82.68-.9,1.29-.9h6.46c.29,0,.62,0,.93,1l.1.35A.81.81,0,0,1,13.83,26.82Zm15.31.06-6.84,0c-1,0-2,0-1.65-1.18l.11-.4c.17-1,.51-.88.8-.88H28c.61,0,1.15.08,1.29.9l.07,1.16C29.4,26.76,29.33,26.87,29.14,26.87ZM29.63,23c-.1.14-1.15.14-1.2-.17a18.14,18.14,0,0,1,.47-3,2.44,2.44,0,0,1,1.1-.16,3.51,3.51,0,0,1,1.09.21A15.48,15.48,0,0,1,29.63,23Z"/></svg>