<svg viewBox="0 0 32 43" version="1.1" xmlns="http://www.w3.org/2000/svg" xmlns:xlink="http://www.w3.org/1999/xlink"><path d="M25.334,34.6664167 C25.838,34.6664167 26.2993333,34.95175 26.526,35.4024167 L26.526,35.4024167 L29.1926667,40.7384167 C29.4006667,41.15175 29.3793333,41.6424167 29.1366667,42.0344167 C28.8913333,42.4264167 28.462,42.6664167 28.0006667,42.6664167 L28.0006667,42.6664167 L1.334,42.6664167 C0.872666667,42.6664167 0.443333333,42.42375 0.200666667,42.03175 C-0.042,41.63975 -0.066,41.1490833 0.142,40.73575 L0.142,40.73575 L2.80866667,35.4024167 C3.03533333,34.95175 3.49666667,34.6664167 4.00066667,34.6664167 L4.00066667,34.6664167 Z M17.9526667,0.0610833333 C18.4833333,-0.101583333 18.7526667,0.0610833333 18.6993333,0.54375 C18.3873333,2.48508333 19.134,3.98641667 20.67,5.16775 C24.2113333,7.95975 27.7126667,10.7490833 31.2673333,13.5410833 C32.118,14.20775 32.246,15.41575 31.55,16.23975 C31.0033333,16.8850833 30.4566667,17.5410833 29.91,18.1970833 C29.022,19.26375 27.502,19.5570833 26.2673333,18.9170833 C25.742,18.6450833 25.2193333,18.3730833 24.7473333,18.0584167 C23.902,17.5224167 22.9393333,17.4130833 21.9873333,17.63175 C20.3446667,18.0610833 18.9153333,17.63175 17.5846667,16.6130833 L17.5846667,16.6130833 L16.7846667,15.96775 L21.1126667,21.56775 C21.5846667,22.1784167 22.1313333,22.7384167 22.7313333,23.2290833 C22.7313333,23.2290833 23.9766667,24.3170833 25.15,25.47975 C26.3233333,26.6424167 26.134,28.2290833 26.134,28.2290833 L26.134,31.99975 L2.66466667,31.99975 L2.66466667,26.7810833 C2.72066667,24.9064167 2.66466667,23.0770833 2.774,21.19175 C2.87,18.72775 3.142,16.30375 3.726,13.8824167 C4.25666667,11.62375 4.93666667,9.36775 6.32333333,7.42641667 C7.598,5.59708333 9.08066667,4.30375 11.4726667,4.41308333 C13.0726667,4.46641667 14.3393333,3.87441667 15.1393333,2.26375 C15.7233333,1.13575 16.7313333,0.434416667 17.9526667,0.0610833333 Z" fill="#FFFFFF" /></svg>
