<svg fill="white" xmlns="http://www.w3.org/2000/svg" viewBox="3.29 3.23 28.46 28.46">
  <path fill-rule="evenodd" clip-rule="evenodd" d="M17.52 3.23438C9.66159 3.23438 3.29112 9.60485 3.29112 17.4632C3.29112 25.3216 9.66159 31.6921 17.52 31.6921C25.3783 31.6921 31.7488 25.3216 31.7488 17.4632C31.7488 9.60485 25.3783 3.23438 17.52 3.23438ZM18.6786 7.52091C18.2309 6.58908 16.9041 6.58908 16.4564 7.52091L14.2983 12.0131C14.1186 12.3871 13.7628 12.6457 13.3515 12.701L8.4123 13.3653C7.38774 13.5031 6.97772 14.765 7.72561 15.4787L11.331 18.9193C11.6312 19.2058 11.7672 19.6241 11.6927 20.0323L10.7982 24.9351C10.6126 25.9521 11.6861 26.732 12.596 26.2413L16.9823 23.8755C17.3476 23.6785 17.7874 23.6785 18.1526 23.8755L22.539 26.2413C23.4489 26.732 24.5223 25.9521 24.3368 24.9351L23.4423 20.0323C23.3678 19.6241 23.5037 19.2058 23.8039 18.9193L27.4094 15.4787C28.1572 14.765 27.7472 13.5031 26.7227 13.3653L21.7834 12.701C21.3722 12.6457 21.0164 12.3871 20.8367 12.0131L18.6786 7.52091Z"></path>
</svg>
