<svg id="Слой_1" data-name="Слой 1" xmlns="http://www.w3.org/2000/svg" viewBox="0 0 35 35"><defs><style>.cls-1{fill:#fff;}</style></defs><title>icons</title><path class="cls-1" d="M4.15,31.43a.75.75,0,0,0,.32.05,7.39,7.39,0,0,0,2.29-.64,8.61,8.61,0,0,0,3.75-3.16,9.84,9.84,0,0,0,1.18-2.95v0h4.13V23.6h-3.9v-.06A28.73,28.73,0,0,0,12.34,19H11.22a27.88,27.88,0,0,1-.41,4.59v0H4.13a.31.31,0,0,0-.23.1.5.5,0,0,0-.07.21c0,2.33,0,6.11,0,6.83h0s0,.07,0,.09A.56.56,0,0,0,4.15,31.43Zm6.41-6.72,0,.06a8.3,8.3,0,0,1-1,2.32A7.83,7.83,0,0,1,5,30.28L5,30.3v-.06c0-.85,0-2.51,0-5.34a.21.21,0,0,1,0-.14.21.21,0,0,1,.14,0Z"/><path class="cls-1" d="M31.73,16.28c.06-7.11-4.64-13.23-13.78-13.53A13.46,13.46,0,0,0,3.73,17.84h11.8a1.41,1.41,0,0,1,1.41,1.41v8.12a4.9,4.9,0,0,0,4.9,4.9,5.54,5.54,0,0,0,5.54-5.54v-2s1-1,1.08-1A9.24,9.24,0,0,0,31.73,16.28Zm-9.6,13a1.76,1.76,0,1,1,1.76-1.76A1.76,1.76,0,0,1,22.12,29.24Z"/></svg>