<svg id="Слой_1" data-name="Слой 1" xmlns="http://www.w3.org/2000/svg" viewBox="0 0 35 35"><defs><style>.cls-1{fill:#fff;}</style></defs><title>icons</title><path class="cls-1" d="M16.57,27.43c-1.54-1.48-1.82-1.82-3-3L12.4,23.26c-1.68-1.68-2.28-2.26-3.95-3.94a8.48,8.48,0,0,1-1.86-2.4l0-.05c-.62-2-1.26-5.16-.35-7.46,1.42-3.59,6-2.69,6,.21,0,.78-.43,1-.15,1.17s2-3.65,3.45-5S18.82,3.23,21,3.68a11.54,11.54,0,0,1,5.08,2.88c.27.24.53.47.79.72a25.2,25.2,0,0,1,5,6.44c1.73,3.5-.21,6.55-4.4,9.71C21.08,28.29,17.9,28.71,16.57,27.43Z"/><path class="cls-1" d="M7.29,27.59l4.77,4.73a.12.12,0,0,1,0,.2c-.66.45-1.52-.13-2.26-.86-2-2-4-4-6-6a8.71,8.71,0,0,1-.75-.78,2.44,2.44,0,0,1,.2-3.3C4,20.75,4.93,20,5.77,19.12c.12-.12.25-.22.42-.36L16.33,28.83c-.57.63-.75.87-1,.59-.94-.91-4.94-4.9-4.94-4.9a1.64,1.64,0,0,0-2.23.21l-.62.62A1.66,1.66,0,0,0,7.29,27.59Z"/><path class="cls-1" d="M13.39,32,8.65,27.28a.78.78,0,0,1,.07-1.09L9,25.89a.78.78,0,0,1,1.09-.07l4.74,4.74c.28.28.44.59.12.91l-.65.61A.59.59,0,0,1,13.39,32Z"/></svg>