<svg id="Слой_1" data-name="Слой 1" xmlns="http://www.w3.org/2000/svg" viewBox="0 0 35 35"><defs><style>.cls-1{fill:#fff;}</style></defs><title>icons</title><path class="cls-1" d="M17.75,8.34A11.07,11.07,0,1,0,28.82,19.41,11.08,11.08,0,0,0,17.75,8.34ZM21,28.86c.37-.74,1.38-2.75,1.38-2.76l-2.54-2.91H15.7l0,.05L13.41,26l1.14,2.9a10,10,0,0,1-5.27-4.18l3.31.48,2.32-2.56-1.16-4.18c-1.34-.43-3.66-1.21-3.66-1.21-.76.54-1.77,1.17-2.32,1.51a9.94,9.94,0,0,1,1.94-5.29c.23,1,.7,2.94.74,3l0,0,3.45,1.2,3.34-2.74s0-2.68,0-3.08L14.5,10a9.83,9.83,0,0,1,6.65,0L18.3,11.83v3l3.38,2.69,3.54-1.23.62-2.77a9.94,9.94,0,0,1,1.9,5.69L25.57,17.2l-3.65,1.27-1.23,4.1s2.6,2.93,2.62,3l3-.9A10,10,0,0,1,21,28.86Z"/><path class="cls-1" d="M5,10.53H9.36a.21.21,0,0,0,.14-.06,9.77,9.77,0,0,1,.81-.7.21.21,0,0,0-.13-.38H4.81a2.48,2.48,0,0,0-2.48,2.48V27.48a.13.13,0,0,1-.13.13H1.36a.13.13,0,0,0-.13.13v.75a.13.13,0,0,0,.13.13H4.53a.13.13,0,0,0,.13-.13v-.75a.13.13,0,0,0-.13-.13H3.61a.13.13,0,0,1-.13-.13V12.08A1.55,1.55,0,0,1,5,10.53Z"/><path class="cls-1" d="M34.17,27.62h-.89a.12.12,0,0,1-.12-.12V11.86a2.48,2.48,0,0,0-2.48-2.48H25.24a.19.19,0,0,0-.11.35,9.62,9.62,0,0,1,.86.74.19.19,0,0,0,.13.05h4.37A1.53,1.53,0,0,1,32,12V27.5a.12.12,0,0,1-.12.12H31a.12.12,0,0,0-.12.12v.78a.12.12,0,0,0,.12.12h3.21a.12.12,0,0,0,.12-.12v-.78A.12.12,0,0,0,34.17,27.62Z"/></svg>