<svg id="Слой_1" data-name="Слой 1" xmlns="http://www.w3.org/2000/svg" viewBox="0 0 35 35"><defs><style>.cls-1{fill:#fff;}</style></defs><title>icons</title><path class="cls-1" d="M31.26,3.29a6.77,6.77,0,0,0-6-1.67,12.29,12.29,0,0,0-6.59,3.54,12.29,12.29,0,0,0-3.54,6.59,8.14,8.14,0,0,0,0,3,27.17,27.17,0,0,1-4.82,8.58,1.09,1.09,0,0,0-1,.29L1.63,31.26a1.09,1.09,0,0,0,0,1.54l.38.38a1.09,1.09,0,0,0,1.54,0l7.66-7.66a1.09,1.09,0,0,0,.32-.81,34.48,34.48,0,0,1,8.92-5.18,7.78,7.78,0,0,0,.93.06,9,9,0,0,0,1.42-.12,12.29,12.29,0,0,0,6.59-3.54,12.29,12.29,0,0,0,3.54-6.59A6.77,6.77,0,0,0,31.26,3.29ZM27.1,3a5,5,0,0,1,2.74,1l-1.71,1.7L26.25,3.8ZM20.63,9.43l2-2L24.5,9.28l-2,2ZM21.73,12l-2,2-1.86-1.86,2-2Zm3.53-2,1.87,1.85-2,2L23.26,12ZM26,9.28l2.11-2.11L30,9l-2.11,2.1ZM25.5,3h0Zm0,1.53,1.88,1.85L25.26,8.52,23.4,6.66ZM24.23,3.33l.49.48L22.63,5.9c-.55-.56-1-1-1.18-1.21A10.58,10.58,0,0,1,24.23,3.33ZM19.65,6.18a12.63,12.63,0,0,1,.94-.85c.2.23.57.62,1.28,1.33l-2,2L18.59,7.38A12.55,12.55,0,0,1,19.65,6.18ZM18,8.28l1.15,1.15-2,2-.38-.37A10.31,10.31,0,0,1,18,8.28Zm-1.43,5.26.55-.55,1.86,1.86-1.53,1.53a4.89,4.89,0,0,1-1-2.45Zm-4.72,9.61a28.51,28.51,0,0,0,3.9-6.76,5.85,5.85,0,0,0,3,2.69A36.18,36.18,0,0,0,11.81,23.14Zm9.11-5a5,5,0,0,1-2.74-1l1.53-1.53,1.87,1.87Zm1.42-1.42-1.87-1.87,2-2,1.86,1.86Zm1.14,1.14-.38-.38,2-2,1.16,1.16A10.31,10.31,0,0,1,23.48,17.85Zm4.89-2.94A12.55,12.55,0,0,1,27.18,16l-1.29-1.29,2-2L29.23,14A12.62,12.62,0,0,1,28.38,14.91Zm1.51-1.82-1.22-1.2,2.1-2.1.48.48A10.55,10.55,0,0,1,29.88,13.08Zm.89-4.82L28.9,6.41l1.7-1.69a5,5,0,0,1,1,2.74Z"/><circle class="cls-1" cx="26.53" cy="24.65" r="2.51"/></svg>