<svg xmlns="http://www.w3.org/2000/svg" width="30" height="30" viewBox="0 0 30 30">
    <path fill="#FFF" fill-rule="nonzero" d="M29.735 14.788l-5.607-3.4s-.255-.991-1.274-2.21l1.019-3.739-3.823 1.19s-1.274-.992-1.954-1.105L14.868 0l-3.399 5.78s-.68.31-2.039.849l-3.568-1.53 1.105 3.995s-.935 1.33-1.105 2.38L0 14.787l5.692 3.314s.481 1.501 1.02 2.21l-1.275 3.654 3.908-.935s1.841 1.303 2.55 1.53L14.782 30l3.228-5.44s1.954-.85 2.549-1.274l3.823 1.02-1.19-3.91s1.02-1.642 1.36-2.464l5.182-3.144zm-10.704 4.929s-1.593 1.317-3.654 1.444c0 0-3.589.468-4.842-1.19l2.803-1.02s4.27-1.401 4.333-2.889c0 0 1.296-2.4-.51-4.504l-.17-.425-.34.085s-1.868-.637-3.482 1.02c0 0-.914 1.572.254 2.635 0 0 .638.36.595-.34l-.17-.935s2.591-1.233 2.634 2.72c0 0-2.103 2.081-4.333.764 0 0-2.825-2.507-2.294-4.504l-.085-1.02 1.869-1.615L14.103 8.5l.85.17.764-.34.425.51 2.379.595s2.102 2.166 2.124 3.059c0 0 1.529 4.695-1.614 7.224z"/>
</svg>
