<svg id="Слой_1" data-name="Слой 1" xmlns="http://www.w3.org/2000/svg" viewBox="0 0 35 35"><defs><style>.cls-1{fill:#fff;}</style></defs><title>icons</title><path class="cls-1" d="M16.59,23c-1.32,2.32-5.81,3.79-7.25-1.2-.35-1.21-.5-3.36-3.87-3.52-2.15-.11-5.46,2.9-3,8.29,2.58,5.61,9,6.8,12.74,5.91,2.69-.63,5.56-1.91,8-7C26.62,18.5,28.53,14.5,33.4,4.57a.19.19,0,0,0-.17-.28L28,4.3c-.13,0-.16.06-.22.17S18.65,19.36,16.59,23Z"/><circle class="cls-1" cx="10.06" cy="10.73" r="3.73" transform="translate(-2.83 3.64) rotate(-18.05)"/></svg>