<svg viewBox="0 0 35 35" fill="none" xmlns="http://www.w3.org/2000/svg"><path fill-rule="evenodd" clip-rule="evenodd" d="M8.29355 8.40104C8.29355 7.07498 9.36853 6 10.6946 6H31.513C32.839 6 33.914 7.07498 33.914 8.40104V21.9235C33.914 23.2496 32.839 24.3245 31.513 24.3245H22.6943V26.7042H28.3318C28.7408 26.7042 29.0724 27.0358 29.0724 27.4448C29.0724 27.8539 28.7408 28.1854 28.3318 28.1854H15.9817C16.4169 27.7319 16.8081 27.2359 17.1485 26.7042H19.5132V24.3245H18.2472C18.3928 23.8455 18.5021 23.3507 18.5719 22.8433H31.513C32.021 22.8433 32.4328 22.4315 32.4328 21.9235V8.40104C32.4328 7.89303 32.021 7.48122 31.513 7.48122H10.6946C10.1866 7.48122 9.77476 7.89303 9.77476 8.40104V11.9201C9.53033 11.9015 9.28335 11.8921 9.03415 11.8921C8.78496 11.8921 8.53798 11.9015 8.29355 11.9201V8.40104ZM17.1521 21.5202C17.1521 25.9805 13.5363 29.5962 9.07603 29.5962C4.61576 29.5962 1 25.9805 1 21.5202C1 17.0599 4.61576 13.4442 9.07603 13.4442C13.5363 13.4442 17.1521 17.0599 17.1521 21.5202ZM5.89834 26.2467L6.68604 28.2613C5.19882 27.734 3.93789 26.7284 3.08816 25.4296L5.30054 25.7484L6.88907 23.9629L5.85471 20.7795L3.56329 19.9849C3.01745 20.3741 2.31749 20.8135 1.94119 21.0466C2.02498 19.7651 2.44643 18.5756 3.11745 17.5664C3.17204 17.4849 3.22837 17.4044 3.28642 17.325L3.3902 17.7483C3.6114 18.6508 3.71505 19.0736 3.77096 19.2731L6.19067 20.1121L8.70573 18.2848V16.0937L6.76037 14.7796C8.27856 14.2417 9.93434 14.2417 11.4525 14.7796L9.44634 16.0741V18.2848L11.9613 20.1121L14.4556 19.2472L14.8749 17.3716C15.7235 18.5483 16.1936 19.9574 16.2221 21.41L14.6951 19.948L12.2974 20.7794L11.2701 23.941L13.0738 25.9683L15.1192 25.3437C14.268 26.6863 12.9817 27.7258 11.4585 28.2639C12.2015 26.8126 12.3866 26.4498 12.409 26.3353L10.6469 24.3547H7.53179L6.41709 25.6076L5.89834 26.2467Z" fill="white"/></svg>
