<svg id="Слой_1" data-name="Слой 1" xmlns="http://www.w3.org/2000/svg" viewBox="0 0 35 35"><defs><style>.cls-1{fill:#fff;}</style></defs><title>icons</title><circle class="cls-1" cx="29.13" cy="6.1" r="2.8" transform="translate(3.57 21.35) rotate(-42.65)"/><path class="cls-1" d="M19.71,32.39a.56.56,0,0,1-.6-.56c0-.31.26-.47.59-.47h5.71s1.11.06,1.4-.69a.6.6,0,0,1,.68-.37c.41.14.43.45.3.76a2.31,2.31,0,0,1-2.47,1.34Z"/><path class="cls-1" d="M14.15,18a.15.15,0,0,0-.24-.06c-2.39,2.23-8,7.72-7,8.79.67.71,4.75-2.21,9.17-6.35a.05.05,0,0,0,0-.08A5.83,5.83,0,0,1,14.15,18Z"/><path class="cls-1" d="M26.69,9.22c-1-1.76-4.1-1.18-8.6-1-4.3.16-7.33.2-7.33,1.28,0,1.7,8.39,1.32,8.81,1.36C14.35,13.31,14.78,16.07,15,17c.52,2,2.59,3.32,3.7,3.84,5.79,2.72,3.16,9.22,4.71,9.45s2.6-4.77.8-8.89c-1-2.25-3.74-3.7-3.67-5.27C20.65,14.29,28.84,12.86,26.69,9.22Z"/><path class="cls-1" d="M2.76,25.88a.56.56,0,0,1,0-.82c.22-.22.51-.15.75.08l4,4v0s.75.82,1.48.5a.6.6,0,0,1,.74.22c.19.38,0,.62-.33.75a2.31,2.31,0,0,1-2.69-.8l-4-4Z"/></svg>