<svg viewBox="0 0 500 500" fill="none" xmlns="http://www.w3.org/2000/svg"><defs><style>.cls-1{fill:#fff;}</style></defs><path class="cls-1" d="M197.507 183.343C212.183 183.343 224.08 171.402 224.08 156.671C224.08 141.941 212.183 130 197.507 130C182.83 130 170.933 141.941 170.933 156.671C170.933 171.402 182.83 183.343 197.507 183.343ZM288.166 196.951C302.842 196.951 314.739 185.009 314.739 170.279C314.739 155.549 302.842 143.608 288.166 143.608C273.49 143.608 261.593 155.549 261.593 170.279C261.593 185.009 273.49 196.951 288.166 196.951ZM134.372 205.353C144.987 188.478 165.79 181.171 184.572 187.717C188.997 189.259 192.528 192.665 194.24 197.04L204.432 223.074C207.491 230.89 214.757 236.244 223.103 236.832L249.715 238.706C253.278 238.957 256.193 241.65 256.735 245.194C257.407 249.576 254.25 253.616 249.848 254.004L214.373 257.133C201.493 258.269 189.164 251.642 182.968 240.252L175.549 226.616L162.263 251.654L179.642 272.069C192.204 286.828 200.377 304.838 203.222 324.04L208.829 361.89C209.321 365.215 207.084 368.327 203.786 368.907C200.917 369.411 198.089 367.834 196.996 365.125L181.383 326.358C175.928 312.815 167.677 300.586 157.174 290.476L140.028 273.971L137.42 289.145C134.668 305.17 128.692 320.464 119.858 334.095L100.263 364.329C98.3015 367.358 94.5201 368.633 91.1328 367.41C86.9193 365.887 84.8623 361.111 86.6418 356.987L101.079 323.552C107.373 308.976 109.175 292.843 106.252 277.231C103.731 263.766 106.381 249.842 113.671 238.257L134.372 205.353ZM300.16 205.677C317.267 196.756 338.247 200.925 350.676 215.715L375.201 244.895C384.083 255.463 387.365 269.67 384.024 283.084L383.814 283.927C378.656 304.636 384.556 326.549 399.402 341.835L410.03 352.779C413.548 356.402 412.159 362.463 407.416 364.177C405.27 364.953 402.882 364.619 401.029 363.284L377.8 346.554C358.211 332.446 349.062 307.855 354.637 284.313L337.362 298.369C325.179 308.281 315.411 320.854 308.801 335.13L295.911 362.973C294.725 365.537 291.969 366.982 289.193 366.494C285.804 365.899 283.537 362.655 284.137 359.254L289.1 331.031C292.915 309.344 303.529 289.445 319.393 274.232L331.587 262.54L311.25 243.489L307.071 252.93C302.285 263.738 292.051 271.104 280.317 272.188L241.017 275.817C236.197 276.262 232.242 272.044 232.979 267.243C233.418 264.374 235.475 262.021 238.25 261.208L268.961 252.218C275.447 250.319 280.684 245.493 283.12 239.166L292.869 213.851C294.227 210.326 296.82 207.42 300.16 205.677Z" /></svg>
