<svg xmlns="http://www.w3.org/2000/svg" viewBox="0 0 30 30"><defs><style>.cls-1{fill:#fff;}</style></defs><path class="cls-1" fill-rule="evenodd" d="M25.965 3.679a10.49 10.49 0 0 0-2.913-2.056l-.874-.415A10.493 10.493 0 0 0 20.435.56l-.847-.23a7.195 7.195 0 0 0-3.182-.138l-.249.045a5.986 5.986 0 0 0-4.378 3.413l-.327.72a8.795 8.795 0 0 0-.458 1.251L9.921 9.429a10.483 10.483 0 0 1-1.413 3.037l-.397.585c-.372.549-.795 1.061-1.264 1.53L4.54 16.889a8.115 8.115 0 0 0-2.138 3.784l-.618 2.49c-.145.58-.338 1.148-.58 1.696l-.038.089c-.236.535-.515 1.05-.837 1.538l-.189.288a.738.738 0 0 0 .095.927l1.805 1.805a.738.738 0 0 0 .893.116l1.106-.643.777-.324a10.472 10.472 0 0 1 1.995-.608l2.34-.464a7.447 7.447 0 0 0 3.815-2.038l2.36-2.36c.51-.51 1.072-.967 1.676-1.362l.53-.347a10.483 10.483 0 0 1 3.053-1.359l3.637-.963a8.573 8.573 0 0 0 1.713-.657l.496-.255a6.376 6.376 0 0 0 3.354-4.468l.022-.117a6.954 6.954 0 0 0-.15-3.255l-.256-.881c-.177-.608-.408-1.2-.692-1.766l-.57-1.142a10.491 10.491 0 0 0-1.965-2.725l-.21-.209zM23.6 5.055a11.156 11.156 0 0 0-2.779-1.799l-3.489 4.578.002.006.724 2.999 5.67-5.67-.092-.082-.036-.032zm-6.829 7.07l-.652-2.699-2.03 2.663a4.9 4.9 0 0 0-1.95-.005l2.874-3.769-3.162-1.064-.223.708-.537 1.845a11.643 11.643 0 0 1-.92 2.254l-.444.83a11.648 11.648 0 0 1-1.684 2.37l-1.084 1.18c-.254.278-.53.536-.825.77l-.813.648a3.206 3.206 0 0 0-1.177 2.947l.037.264c.051.37.151.729.297 1.07l3.728-4.89a4.936 4.936 0 0 0 .521 1.878l-3.346 4.39 3.743-3.742c.307.424.679.794 1.099 1.098l-3.61 3.61 4.232-3.226c.57.296 1.2.482 1.862.535l-4.824 3.676c.302.115.615.197.936.244l.259.037a3.376 3.376 0 0 0 3.02-1.112l1.056-1.202 2.083-1.832c.432-.38.892-.727 1.375-1.039l.282-.182a11.64 11.64 0 0 1 2.466-1.207l2.457-.86.898-.23-1.088-3.091-3.703 2.822a4.902 4.902 0 0 0-.023-1.936l2.704-2.06-2.728-.601-.801.801a4.928 4.928 0 0 0-1.1-1.097l.795-.795zm-.764-5.114l3.297-4.327a8.735 8.735 0 0 0-.66-.158l-.518-.104a5.316 5.316 0 0 0-1.613-.073l-.27.03a4.548 4.548 0 0 0-3.851 3.155l-.075.235 3.69 1.242zm6.217 5.572l-.204-.044-2.84-.626 5.628-5.627c.051.06.102.121.152.183l.062.077c.658.814 1.203 1.711 1.621 2.67l-4.42 3.367zm2.002 5.114l-1.301-3.695 4.33-3.3.036.088c.292.716.443 1.482.443 2.256v.723a3.904 3.904 0 0 1-2.937 3.782l-.571.146zm-14.858-.284a3.767 3.767 0 1 1 7.466-1.032 3.767 3.767 0 1 1-7.466 1.032z"/></svg>
