<svg id="Слой_1" data-name="Слой 1" xmlns="http://www.w3.org/2000/svg" viewBox="0 0 35 35"><defs><style>.cls-1{fill:#fff;}</style></defs><title>icons</title><path class="cls-1" d="M18.87,18.48a3.27,3.27,0,1,0-3.28-3.3A3.26,3.26,0,0,0,18.87,18.48Z"/><path class="cls-1" d="M33.35,20.84c-.76-1.25-7,.86-16.68-1.68-5.77-1.52-8.4-5.7-9.88-9v0H7A3.18,3.18,0,0,0,10.17,7,3.28,3.28,0,0,0,7,3.77,3.18,3.18,0,0,0,4.09,5.7l0,0c-.86.54-.66,2.63-.19,4.39,2.43,9,7.94,11.4,8.41,11.68,1.42.76,1.11,1.16.85,3A45.38,45.38,0,0,1,20.59,27c.13-1,.16-1.54.31-2.53a1.24,1.24,0,0,1,1.27-.86C31.39,23.7,34,21.86,33.35,20.84ZM7,4.77A2.19,2.19,0,0,1,7,9.15a2,2,0,0,1-.66-.1A2.15,2.15,0,0,1,5,6H5V6A2.2,2.2,0,0,1,7,4.77Z"/><path class="cls-1" d="M15.62,30.82c.24.13.15.31,0,.31H3.59c-.07,0-.1-.11-.07-.18C3.78,30.47,10.67,28.16,15.62,30.82Z"/><path class="cls-1" d="M33.79,27.29C33.46,27,31,29,24.93,29c-4.38,0-9-3.22-14.53-3.22-5.29,0-9.41,3.83-9.23,4.44s4-1.71,9.07-1.74c6.17,0,8.27,3.21,14.94,3.19C30.52,31.63,34.3,27.81,33.79,27.29Z"/></svg>