<svg viewBox="0 0 35 35" fill="none" xmlns="http://www.w3.org/2000/svg"><path fill-rule="evenodd" clip-rule="evenodd" d="M17.421 1.00391L23.2851 12.7689C24.4357 14.754 25.4677 16.1152 26.945 16.9315C27.3674 17.1649 27.8263 17.3537 28.3347 17.4999C27.8789 17.5785 27.4167 17.7696 26.9627 18.0418C25.3835 18.9884 23.904 20.9147 23.1378 22.4905L17.421 33.9959L11.3405 21.7843C10.4034 19.9312 9.55152 18.9504 7.77778 18.0461C7.41882 17.8631 7.0221 17.6832 6.57928 17.4999C7.01816 17.3167 7.41221 17.136 7.77189 16.9472C9.32021 16.1342 10.2316 15.1706 11.3405 13.2154L17.421 1.00391ZM22.3368 13.2168C23.4098 15.0679 24.4587 16.5318 25.9616 17.5017C25.4395 17.8642 24.9594 18.2925 24.535 18.7304C23.5401 19.757 22.6945 20.9995 22.1595 22.0986L22.1578 22.1021L17.42 31.6373L12.3154 21.3857L12.3141 21.3831C11.7271 20.2223 11.1318 19.3072 10.2842 18.5351C9.85486 18.1439 9.37692 17.8042 8.83123 17.4901C9.27758 17.2224 9.68709 16.9274 10.072 16.5848C10.9165 15.833 11.5861 14.9023 12.2931 13.6557L12.3055 13.6339L17.4215 3.35936L22.3221 13.1914L22.3368 13.2168ZM17.3942 6.12467L16.1163 8.55198L20.1709 16.7168C20.2347 16.8452 20.3462 16.9496 20.4862 17.0117L21.7073 17.5534L20.508 18.0237C20.3546 18.0839 20.2318 18.1937 20.1637 18.3315L17.9533 22.8038L19.2845 25.5435L21.7073 20.5215C22.6994 18.8474 23.5006 18.2488 25.195 17.5534C23.6178 17.1767 22.8071 16.7166 21.7073 14.7228L17.3942 6.12467ZM18.7749 26.5126L17.4969 28.94L13.1839 20.3419C12.0841 18.348 11.2734 17.888 9.69616 17.5112C11.3906 16.8158 12.1918 16.2173 13.1839 14.5431L15.6066 9.52113L16.9378 12.2609L14.7275 16.7331C14.6593 16.8709 14.5365 16.9808 14.3832 17.0409L13.1839 17.5112L14.405 18.053C14.5449 18.1151 14.6565 18.2194 14.7203 18.3479L18.7749 26.5126ZM18.9533 17.6201L17.4793 14.449L16.0054 17.6201L17.4793 20.7912L18.9533 17.6201Z" fill="white"/></svg>
