<svg id="Слой_1" data-name="Слой 1" xmlns="http://www.w3.org/2000/svg" viewBox="0 0 35 35"><defs><style>.cls-1{fill:#fff;}</style></defs><title>icons</title><path class="cls-1" d="M16.14,30c.24.13.14.31,0,.31H4.29c-.07,0-.1-.11-.07-.18C4.47,29.62,11.26,27.35,16.14,30Z"/><path class="cls-1" d="M26,30.76l-.62,0c-.46,0-.9,0-1.31,0a20.54,20.54,0,0,1-6.37-1.59,17.85,17.85,0,0,0-7-1.51,19.71,19.71,0,0,0-3.88.43c-3,.62-4.91,1.64-5.07,1.29s1.41-2,3.82-3.12L5.91,26l.75-.3A11.87,11.87,0,0,1,10.76,25a15.17,15.17,0,0,1,2.16.16l.13,0q.56.08,1.11.2h0a63.8,63.8,0,0,1,6.16,1.87,20.25,20.25,0,0,0,3.45.84,9.93,9.93,0,0,0,1.32.09c.67,0,1.29,0,1.87-.07l.47,0,1-.11.59-.09c3.18-.55,4.6-1.59,4.84-1.35C34.3,27,30.88,30.47,26,30.76Z"/><path class="cls-1" d="M24,19.89A13.32,13.32,0,0,1,20.32,26a63.8,63.8,0,0,0-6.16-1.87h0q-.55-.12-1.11-.2l-.13,0a5.91,5.91,0,0,0,.95-.46,8.51,8.51,0,0,0,3.92-4.81.36.36,0,0,1,.31-.26,11.4,11.4,0,0,1,5.68,1A.36.36,0,0,1,24,19.89Z"/><path class="cls-1" d="M29,26.65l-.59.09-1,.11a13.23,13.23,0,0,0,2-2.94,10.51,10.51,0,0,0-4.31-5L25,18.81l-.16-.09h0a11.76,11.76,0,0,0-6.57-1.32.47.47,0,0,1-.39-.14,8,8,0,0,1-2.16-5.16c0-.1,0-.2,0-.27a.46.46,0,0,1,.39-.45,18.32,18.32,0,0,1,8.91,1,13.12,13.12,0,0,1,5.36,3.58.17.17,0,0,0,.29-.14A13.15,13.15,0,0,0,17.76,5.06l-.81,0a.17.17,0,0,0-.11.05,9.49,9.49,0,0,0-2.28,7.12,8.5,8.5,0,0,0,2.34,5.53.27.27,0,0,1,.07.26,7.88,7.88,0,0,1-3.62,4.49l-.41.22a.28.28,0,0,1-.32-.06,15.23,15.23,0,0,1-3.79-9.5A12.85,12.85,0,0,1,9.5,8.44a.17.17,0,0,0-.27-.19A13,13,0,0,0,6.42,24.53a.44.44,0,0,1,0,.09c-.26.09-.31.12-.55.23L5.49,25A14,14,0,0,1,3.66,18.3,14.1,14.1,0,1,1,29,26.65Z"/></svg>