<svg id="Слой_1" data-name="Слой 1" xmlns="http://www.w3.org/2000/svg" viewBox="0 0 35 35"><defs><style>.cls-1{fill:#fff;}.cls-2{fill:none;}</style></defs><title>icons</title><path class="cls-1" d="M21.58,22.83c-1.39.68-5.9-2.26-6.65-3A8.08,8.08,0,0,1,13.42,18a3.15,3.15,0,0,1,1.18-4.11c1.69-1,5.48-3.1,5.55-3.06a2.43,2.43,0,0,1-1,2.56C10.66,17.71,24,21.12,21.58,22.83Z"/><path class="cls-1" d="M18.92,7.77c-.91.52-2.66,1.47-3.52,2-1.51-.93-3.71-1.14-4.53,1.11-.52,1.44-.41,1.74-.93,3.13,1.36-.78,12.65-7,15.31-8.6a.56.56,0,1,1,.61.93C24.62,7,14,13.06,9.14,15.85a7.8,7.8,0,0,0-1.62,1C6.36,18.28,3.19,19.14,3,18.09c-.12-.77,3.29-1.38,4.24-5,.31-1.21.19-5,2.49-6.62,3.19-2.26,6.39-1.16,8.69.89A4,4,0,0,1,18.92,7.77Z"/><path class="cls-1" d="M6.46,10.4A2.41,2.41,0,0,1,4.28,13a2.38,2.38,0,0,1-2.52-2.25A2.41,2.41,0,0,1,3.94,8.15,2.38,2.38,0,0,1,6.46,10.4Z"/><path class="cls-1" d="M8.44,31.33a8.94,8.94,0,0,1-1-.05.55.55,0,1,1,.13-1.1,8,8,0,0,0,3.86-.55c2.2-1.11,21.43-12.06,21.62-12.17a.55.55,0,0,1,.55,1c-.79.45-19.44,11.08-21.67,12.2A8,8,0,0,1,8.44,31.33Z"/><line class="cls-2" x1="16.55" y1="11.85" x2="16.6" y2="11.84"/><line class="cls-2" x1="16.61" y1="11.99" x2="16.56" y2="12"/></svg>